<svg width="24" height="24" viewBox="0 0 24 24" fill="none" xmlns="http://www.w3.org/2000/svg">
<mask id="mask0_1105_20237" style="mask-type:alpha" maskUnits="userSpaceOnUse" x="0" y="0" width="24" height="24">
<rect width="24" height="24" fill="#D9D9D9"/>
</mask>
<g mask="url(#mask0_1105_20237)">
<path d="M11.5 14.7309H12.5V12.7309H14.5V11.7309H12.5V9.73088H11.5V11.7309H9.5V12.7309H11.5V14.7309ZM4.5 18.7309V17.7309H6.5V10.2309C6.5 8.89883 6.92308 7.72735 7.76923 6.71645C8.61538 5.70555 9.6923 5.0719 11 4.81548V4.11548C11 3.82701 11.0946 3.58823 11.2837 3.39913C11.4728 3.21003 11.7115 3.11548 12 3.11548C12.2885 3.11548 12.5272 3.21003 12.7163 3.39913C12.9054 3.58823 13 3.82701 13 4.11548V4.81548C14.3077 5.0719 15.3846 5.70555 16.2308 6.71645C17.0769 7.72735 17.5 8.89883 17.5 10.2309V17.7309H19.5V18.7309H4.5ZM12 21.6155C11.5654 21.6155 11.1875 21.4613 10.8663 21.153C10.5452 20.8446 10.3846 20.4604 10.3846 20.0001H13.6154C13.6154 20.4604 13.4612 20.8446 13.1529 21.153C12.8445 21.4613 12.4602 21.6155 12 21.6155ZM7.5 17.7309H16.5V10.2309C16.5 8.977 16.0635 7.91354 15.1904 7.04045C14.3173 6.1674 13.2538 5.73088 12 5.73088C10.7462 5.73088 9.68269 6.16741 8.80963 7.04048C7.93654 7.91356 7.5 8.97703 7.5 10.2309V17.7309Z" fill="#1C1B1F"/>
</g>
</svg>
