<svg width="28" height="26" viewBox="0 0 28 26" fill="none" xmlns="http://www.w3.org/2000/svg">
<path d="M22.75 8V5.5H20.25V3H22.75V0.5H25.25V3H27.75V5.5H25.25V8H22.75ZM2.75 25.5C2.0625 25.5 1.47396 25.2552 0.984375 24.7656C0.494792 24.276 0.25 23.6875 0.25 23V8C0.25 7.3125 0.494792 6.72396 0.984375 6.23438C1.47396 5.74479 2.0625 5.5 2.75 5.5H6.6875L9 3H16.5V5.5H10.0938L7.8125 8H2.75V23H22.75V11.75H25.25V23C25.25 23.6875 25.0052 24.276 24.5156 24.7656C24.026 25.2552 23.4375 25.5 22.75 25.5H2.75ZM12.75 21.125C14.3125 21.125 15.6406 20.5781 16.7344 19.4844C17.8281 18.3906 18.375 17.0625 18.375 15.5C18.375 13.9375 17.8281 12.6094 16.7344 11.5156C15.6406 10.4219 14.3125 9.875 12.75 9.875C11.1875 9.875 9.85938 10.4219 8.76562 11.5156C7.67188 12.6094 7.125 13.9375 7.125 15.5C7.125 17.0625 7.67188 18.3906 8.76562 19.4844C9.85938 20.5781 11.1875 21.125 12.75 21.125ZM12.75 18.625C11.875 18.625 11.1354 18.3229 10.5312 17.7188C9.92708 17.1146 9.625 16.375 9.625 15.5C9.625 14.625 9.92708 13.8854 10.5312 13.2812C11.1354 12.6771 11.875 12.375 12.75 12.375C13.625 12.375 14.3646 12.6771 14.9688 13.2812C15.5729 13.8854 15.875 14.625 15.875 15.5C15.875 16.375 15.5729 17.1146 14.9688 17.7188C14.3646 18.3229 13.625 18.625 12.75 18.625Z" fill="#1C1B1F"/>
</svg>
