<svg width="44" height="48" viewBox="0 0 44 48" fill="none" xmlns="http://www.w3.org/2000/svg">
<g clip-path="url(#clip0_2331_28510)">
<path d="M43.4999 47.8488C42.6886 47.8846 41.9126 47.956 41.1013 47.9917C40.6074 45.7774 38.5615 37.9917 32.3884 34.3131C30.8363 33.3846 27.979 31.6703 24.8043 32.8846C20.8182 34.4203 19.372 39.5274 19.0898 40.5274C18.2432 43.456 18.4901 46.0631 18.7017 47.456C17.8904 47.5274 17.1144 47.6346 16.3031 47.706C15.3859 42.8131 14.4688 37.956 13.5869 33.0631C12.6345 31.8846 11.6115 30.456 10.6591 28.7417C9.74194 27.1346 9.03645 25.5631 8.50732 24.0274C12.3523 22.8131 15.4565 19.456 16.938 15.0631L17.2908 14.6703C18.8076 16.7417 21.9823 20.206 26.7091 20.7774C27.591 20.8846 28.9667 20.956 30.6952 20.5274C33.0939 20.206 34.7871 19.1703 35.7042 18.4917C37.9971 16.7774 39.267 14.4203 40.1488 12.7417C40.7485 11.6703 41.1365 10.706 41.4187 9.9917C41.3482 11.6703 40.9954 16.3846 37.9618 20.1346C37.0094 21.2774 36.0217 22.0988 35.1751 22.6703C38.2793 26.8131 42.5828 33.9917 43.4294 43.6703C43.5705 45.0988 43.6058 46.5274 43.5705 47.8488H43.4999Z" fill="#A6A6A6"/>
<path d="M8.96596 19.4917C13.6222 19.4917 17.4319 15.1346 17.4319 9.7417C17.4319 4.34884 13.6222 -0.00830078 8.96596 -0.00830078C4.30968 -0.00830078 0.5 4.34884 0.5 9.7417C0.5 15.1346 4.27441 19.4917 8.96596 19.4917Z" fill="#A7A8AB"/>
</g>
<defs>
<clipPath id="clip0_2331_28510">
<rect width="43" height="48" fill="white" transform="translate(0.5 -0.00830078)"/>
</clipPath>
</defs>
</svg>
