<svg width="146" height="36" viewBox="0 0 146 36" fill="none" xmlns="http://www.w3.org/2000/svg">
<path d="M37.3984 2.38916H30.1182V10.1904H37.3984V2.38916Z" fill="#A6A6A6" stroke="white" stroke-width="0.75" stroke-miterlimit="10"/>
<path d="M37.3984 10.1904H30.1182V17.9917H37.3984V10.1904Z" fill="#A6A6A6" stroke="white" stroke-width="0.75" stroke-miterlimit="10"/>
<path d="M37.3984 17.9917H30.1182V25.793H37.3984V17.9917Z" fill="#A6A6A6" stroke="white" stroke-width="0.75" stroke-miterlimit="10"/>
<path d="M37.3984 25.793H30.1182V33.5942H37.3984V25.793Z" fill="#A6A6A6" stroke="white" stroke-width="0.75" stroke-miterlimit="10"/>
<path d="M44.6786 25.793H37.3984V33.5942H44.6786V25.793Z" fill="#A6A6A6" stroke="white" stroke-width="0.75" stroke-miterlimit="10"/>
<path d="M51.9589 25.793H44.6787V33.5942H51.9589V25.793Z" fill="#A6A6A6" stroke="white" stroke-width="0.75" stroke-miterlimit="10"/>
<path d="M72.9823 26.7827H65.7021V34.584H72.9823V26.7827Z" fill="#A6A6A6" stroke="white" stroke-width="0.75" stroke-miterlimit="10"/>
<path d="M65.7021 22.8628H58.4219V30.6641H65.7021V22.8628Z" fill="#A6A6A6" stroke="white" stroke-width="0.75" stroke-miterlimit="10"/>
<path d="M65.7021 15.0615H58.4219V22.8628H65.7021V15.0615Z" fill="#A6A6A6" stroke="white" stroke-width="0.75" stroke-miterlimit="10"/>
<path d="M65.7021 7.26025H58.4219V15.0615H65.7021V7.26025Z" fill="#A6A6A6" stroke="white" stroke-width="0.75" stroke-miterlimit="10"/>
<path d="M73.0531 1.43799H65.7729V9.23926H73.0531V1.43799Z" fill="#A6A6A6" stroke="white" stroke-width="0.75" stroke-miterlimit="10"/>
<path d="M80.2626 7.26025H72.9824V15.0615H80.2626V7.26025Z" fill="#A6A6A6" stroke="white" stroke-width="0.75" stroke-miterlimit="10"/>
<path d="M80.2626 15.0615H72.9824V22.8628H80.2626V15.0615Z" fill="#A6A6A6" stroke="white" stroke-width="0.75" stroke-miterlimit="10"/>
<path d="M80.2626 22.8628H72.9824V30.6641H80.2626V22.8628Z" fill="#A6A6A6" stroke="white" stroke-width="0.75" stroke-miterlimit="10"/>
<path d="M93.9706 21.4927H86.6904V29.2939H93.9706V21.4927Z" fill="#A6A6A6" stroke="white" stroke-width="0.75" stroke-miterlimit="10"/>
<path d="M93.9706 14.2622H86.6904V22.0635H93.9706V14.2622Z" fill="#A6A6A6" stroke="white" stroke-width="0.75" stroke-miterlimit="10"/>
<path d="M93.9706 6.46094H86.6904V14.2622H93.9706V6.46094Z" fill="#A6A6A6" stroke="white" stroke-width="0.75" stroke-miterlimit="10"/>
<path d="M101.322 1.58984H94.0415V9.39111H101.322V1.58984Z" fill="#A6A6A6" stroke="white" stroke-width="0.75" stroke-miterlimit="10"/>
<path d="M108.602 6.46094H101.322V14.2622H108.602V6.46094Z" fill="#A6A6A6" stroke="white" stroke-width="0.75" stroke-miterlimit="10"/>
<path d="M101.322 26.6299H94.0415V34.4312H101.322V26.6299Z" fill="#A6A6A6" stroke="white" stroke-width="0.75" stroke-miterlimit="10"/>
<path d="M108.602 23.0527H101.322V30.854H108.602V23.0527Z" fill="#A6A6A6" stroke="white" stroke-width="0.75" stroke-miterlimit="10"/>
<path d="M122.346 25.4507H115.065V33.252H122.346V25.4507Z" fill="#A6A6A6" stroke="white" stroke-width="0.75" stroke-miterlimit="10"/>
<path d="M122.346 17.6494H115.065V25.4507H122.346V17.6494Z" fill="#A6A6A6" stroke="white" stroke-width="0.75" stroke-miterlimit="10"/>
<path d="M122.346 9.84814H115.065V17.6494H122.346V9.84814Z" fill="#A6A6A6" stroke="white" stroke-width="0.75" stroke-miterlimit="10"/>
<path d="M122.346 2.5415H115.065V10.3428H122.346V2.5415Z" fill="#A6A6A6" stroke="white" stroke-width="0.75" stroke-miterlimit="10"/>
<path d="M129.626 14.4526H122.346V22.2539H129.626V14.4526Z" fill="#A6A6A6" stroke="white" stroke-width="0.75" stroke-miterlimit="10"/>
<path d="M135.912 6.42334H128.631V14.2246H135.912V6.42334Z" fill="#A6A6A6" stroke="white" stroke-width="0.75" stroke-miterlimit="10"/>
<path d="M136.906 22.2539H129.626V30.0552H136.906V22.2539Z" fill="#A6A6A6" stroke="white" stroke-width="0.75" stroke-miterlimit="10"/>
<path d="M144.186 26.1738H136.906V33.9751H144.186V26.1738Z" fill="#A6A6A6" stroke="white" stroke-width="0.75" stroke-miterlimit="10"/>
<path d="M143.192 2.04688H135.912V9.84814H143.192V2.04688Z" fill="#A6A6A6" stroke="white" stroke-width="0.75" stroke-miterlimit="10"/>
<path d="M9.1298 1.81836H1.84961V9.61963H9.1298V1.81836Z" fill="#A6A6A6" stroke="white" stroke-width="0.75" stroke-miterlimit="10"/>
<path d="M9.1298 10H1.84961V17.8013H9.1298V10Z" fill="#A6A6A6" stroke="white" stroke-width="0.75" stroke-miterlimit="10"/>
<path d="M9.1298 18.1821H1.84961V25.9834H9.1298V18.1821Z" fill="#A6A6A6" stroke="white" stroke-width="0.75" stroke-miterlimit="10"/>
<path d="M9.1298 26.4019H1.84961V34.2031H9.1298V26.4019Z" fill="#A6A6A6" stroke="white" stroke-width="0.75" stroke-miterlimit="10"/>
<path d="M16.3744 26.4019H9.09424V34.2031H16.3744V26.4019Z" fill="#A6A6A6" stroke="white" stroke-width="0.75" stroke-miterlimit="10"/>
<path d="M23.6547 20.1606H16.3745V27.9619H23.6547V20.1606Z" fill="#A6A6A6" stroke="white" stroke-width="0.75" stroke-miterlimit="10"/>
<path d="M16.3744 1.81836H9.09424V9.61963H16.3744V1.81836Z" fill="#A6A6A6" stroke="white" stroke-width="0.75" stroke-miterlimit="10"/>
<path d="M23.6547 7.48877H16.3745V15.29H23.6547V7.48877Z" fill="#A6A6A6" stroke="white" stroke-width="0.75" stroke-miterlimit="10"/>
<path d="M16.3744 14.3003H9.09424V22.1016H16.3744V14.3003Z" fill="#A6A6A6" stroke="white" stroke-width="0.75" stroke-miterlimit="10"/>
</svg>
