<svg width="24" height="24" viewBox="0 0 24 24" fill="none" xmlns="http://www.w3.org/2000/svg">
<path d="M7.5 16H2.5C2.36739 16 2.24021 16.0527 2.14645 16.1464C2.05268 16.2402 2 16.3674 2 16.5C2 16.6326 2.05268 16.7598 2.14645 16.8536C2.24021 16.9473 2.36739 17 2.5 17H7V21.5C7 21.6326 7.05268 21.7598 7.14645 21.8536C7.24021 21.9473 7.36739 22 7.5 22C7.63261 22 7.75979 21.9473 7.85355 21.8536C7.94732 21.7598 8 21.6326 8 21.5V16.5C8 16.3674 7.94732 16.2402 7.85355 16.1464C7.75979 16.0527 7.63261 16 7.5 16ZM16.5 8H21.5C21.6326 8 21.7598 7.94732 21.8536 7.85355C21.9473 7.75979 22 7.63261 22 7.5C22 7.36739 21.9473 7.24021 21.8536 7.14645C21.7598 7.05268 21.6326 7 21.5 7H17V2.5C17 2.36739 16.9473 2.24021 16.8536 2.14645C16.7598 2.05268 16.6326 2 16.5 2C16.3674 2 16.2402 2.05268 16.1464 2.14645C16.0527 2.24021 16 2.36739 16 2.5V7.5C16 7.63261 16.0527 7.75979 16.1464 7.85355C16.2402 7.94732 16.3674 8 16.5 8ZM7.5 2C7.36739 2 7.24021 2.05268 7.14645 2.14645C7.05268 2.24021 7 2.36739 7 2.5V7H2.5C2.36739 7 2.24021 7.05268 2.14645 7.14645C2.05268 7.24021 2 7.36739 2 7.5C2 7.63261 2.05268 7.75979 2.14645 7.85355C2.24021 7.94732 2.36739 8 2.5 8H7.5C7.63261 8 7.75979 7.94732 7.85355 7.85355C7.94732 7.75979 8 7.63261 8 7.5V2.5C8 2.36739 7.94732 2.24021 7.85355 2.14645C7.75979 2.05268 7.63261 2 7.5 2ZM21.5 16H16.5C16.3674 16 16.2402 16.0527 16.1464 16.1464C16.0527 16.2402 16 16.3674 16 16.5V21.5C16 21.6326 16.0527 21.7598 16.1464 21.8536C16.2402 21.9473 16.3674 22 16.5 22C16.6326 22 16.7598 21.9473 16.8536 21.8536C16.9473 21.7598 17 21.6326 17 21.5V17H21.5C21.6326 17 21.7598 16.9473 21.8536 16.8536C21.9473 16.7598 22 16.6326 22 16.5C22 16.3674 21.9473 16.2402 21.8536 16.1464C21.7598 16.0527 21.6326 16 21.5 16Z" fill="#F3CC00"/>
</svg>
