<svg width="23" height="23" viewBox="0 0 23 23" fill="none" xmlns="http://www.w3.org/2000/svg">
<path d="M6.80794 2.5622C6.76686 2.49877 6.71369 2.44406 6.65147 2.40118C6.58925 2.3583 6.51919 2.32809 6.44529 2.31229C6.37139 2.29648 6.29511 2.29539 6.22079 2.30906C6.14647 2.32274 6.07557 2.35092 6.01214 2.392C5.88404 2.47496 5.79414 2.60541 5.76222 2.75465C5.7303 2.90389 5.75898 3.0597 5.84194 3.1878L10.8157 10.8445L8.60194 14.2485C7.84988 13.8216 6.96493 13.6927 6.12235 13.8874C5.27977 14.082 4.54101 14.586 4.05239 15.2995C3.56376 16.013 3.3609 16.8839 3.48399 17.7399C3.60707 18.5959 4.04713 19.3744 4.717 19.9213C5.38686 20.4682 6.23769 20.7436 7.10098 20.6929C7.96426 20.6423 8.77704 20.2692 9.37834 19.6477C9.97964 19.0262 10.3256 18.2016 10.3477 17.3371C10.3699 16.4726 10.0665 15.6313 9.49779 14.9799L11.4999 11.9002L13.5009 14.9822C12.9322 15.6336 12.6289 16.4749 12.651 17.3394C12.6731 18.2039 13.0191 19.0285 13.6204 19.65C14.2217 20.2715 15.0345 20.6446 15.8978 20.6952C16.761 20.7459 17.6119 20.4705 18.2817 19.9236C18.9516 19.3767 19.3917 18.5982 19.5147 17.7422C19.6378 16.8862 19.435 16.0153 18.9463 15.3018C18.4577 14.5883 17.719 14.0843 16.8764 13.8897C16.0338 13.695 15.1488 13.8239 14.3968 14.2508L6.80794 2.5622ZM16.0999 19.55C15.4899 19.55 14.9049 19.3077 14.4736 18.8763C14.0423 18.445 13.7999 17.86 13.7999 17.25C13.7999 16.64 14.0423 16.055 14.4736 15.6237C14.9049 15.1923 15.4899 14.95 16.0999 14.95C16.7099 14.95 17.295 15.1923 17.7263 15.6237C18.1576 16.055 18.3999 16.64 18.3999 17.25C18.3999 17.86 18.1576 18.445 17.7263 18.8763C17.295 19.3077 16.7099 19.55 16.0999 19.55ZM4.59994 17.25C4.59994 16.64 4.84226 16.055 5.27359 15.6237C5.70493 15.1923 6.28994 14.95 6.89994 14.95C7.50994 14.95 8.09495 15.1923 8.52629 15.6237C8.95762 16.055 9.19994 16.64 9.19994 17.25C9.19994 17.86 8.95762 18.445 8.52629 18.8763C8.09495 19.3077 7.50994 19.55 6.89994 19.55C6.28994 19.55 5.70493 19.3077 5.27359 18.8763C4.84226 18.445 4.59994 17.86 4.59994 17.25ZM12.8707 9.78765L12.1853 8.73195L16.1931 2.5622C16.279 2.44141 16.4083 2.35849 16.554 2.33074C16.6996 2.30299 16.8503 2.33257 16.9747 2.41329C17.099 2.49401 17.1874 2.61964 17.2213 2.76396C17.2553 2.90828 17.2321 3.06012 17.1568 3.1878L12.8707 9.7888V9.78765Z" fill="#9D52FE"/>
</svg>
