<svg width="24" height="24" viewBox="0 0 24 24" fill="none" xmlns="http://www.w3.org/2000/svg">
<mask id="mask0_944_14919" style="mask-type:alpha" maskUnits="userSpaceOnUse" x="0" y="0" width="24" height="24">
<rect width="24" height="24" fill="#D9D9D9"/>
</mask>
<g mask="url(#mask0_944_14919)">
<path d="M7.80005 19.7001C7.38338 19.7001 7.02922 19.5543 6.73755 19.2626C6.44588 18.9709 6.30005 18.6168 6.30005 18.2001V6.0001H5.30005V5.3001H9.00005V4.6001H15V5.3001H18.7V6.0001H17.7V18.2001C17.7 18.6334 17.5584 18.9918 17.275 19.2751C16.9917 19.5584 16.6334 19.7001 16.2 19.7001H7.80005ZM17 6.0001H7.00005V18.2001C7.00005 18.4334 7.07505 18.6251 7.22505 18.7751C7.37505 18.9251 7.56672 19.0001 7.80005 19.0001H16.2C16.4 19.0001 16.5834 18.9168 16.75 18.7501C16.9167 18.5834 17 18.4001 17 18.2001V6.0001ZM10.05 17.0001H10.75V8.0001H10.05V17.0001ZM13.25 17.0001H13.95V8.0001H13.25V17.0001Z" fill="#1C1B1F"/>
</g>
</svg>
