<svg width="78" height="104" viewBox="0 0 78 104" fill="none" xmlns="http://www.w3.org/2000/svg">
<path d="M19.7493 63.4002C19.02 63.4002 18.3205 63.0999 17.8048 62.5655C17.2891 62.031 16.9993 61.3061 16.9993 60.5502C16.9993 59.7943 17.2891 59.0694 17.8048 58.5349C18.3205 58.0005 19.02 57.7002 19.7493 57.7002H58.2493C58.9787 57.7002 59.6782 58.0005 60.1939 58.5349C60.7096 59.0694 60.9993 59.7943 60.9993 60.5502C60.9993 61.3061 60.7096 62.031 60.1939 62.5655C59.6782 63.0999 58.9787 63.4002 58.2493 63.4002H19.7493ZM19.7493 80.5002C19.02 80.5002 18.3205 80.1999 17.8048 79.6655C17.2891 79.131 16.9993 78.4061 16.9993 77.6502C16.9993 76.8943 17.2891 76.1694 17.8048 75.6349C18.3205 75.1005 19.02 74.8002 19.7493 74.8002H58.2493C58.9787 74.8002 59.6782 75.1005 60.1939 75.6349C60.7096 76.1694 60.9993 76.8943 60.9993 77.6502C60.9993 78.4061 60.7096 79.131 60.1939 79.6655C59.6782 80.1999 58.9787 80.5002 58.2493 80.5002H19.7493Z" fill="#8B909A" fill-opacity="0.85"/>
<path fill-rule="evenodd" clip-rule="evenodd" d="M45.5172 0.700196H8.7497C6.56166 0.700196 4.46324 1.601 2.91606 3.20443C1.36889 4.80787 0.499695 6.98259 0.499695 9.2502V94.7502C0.499695 97.0178 1.36889 99.1925 2.91606 100.796C4.46324 102.399 6.56166 103.3 8.7497 103.3H69.2497C71.4377 103.3 73.5362 102.399 75.0833 100.796C76.6305 99.1925 77.4997 97.0178 77.4997 94.7502V36.0516C77.4992 33.9111 76.7239 31.8486 75.3272 30.2718L51.6002 3.4704C50.827 2.59684 49.8869 1.89948 48.8397 1.42258C47.7925 0.945687 46.661 0.699684 45.5172 0.700196ZM5.9997 9.2502C5.9997 8.49433 6.28943 7.76942 6.80515 7.23494C7.32088 6.70046 8.02035 6.4002 8.7497 6.4002H45.5172C45.8988 6.39976 46.2763 6.48164 46.6257 6.64061C46.9751 6.79958 47.2887 7.03218 47.5467 7.3236L71.2737 34.125C71.74 34.6503 71.999 35.3378 71.9997 36.0516V94.7502C71.9997 95.5061 71.71 96.231 71.1942 96.7654C70.6785 97.2999 69.979 97.6002 69.2497 97.6002H8.7497C8.02035 97.6002 7.32088 97.2999 6.80515 96.7654C6.28943 96.231 5.9997 95.5061 5.9997 94.7502V9.2502Z" fill="#8B909A" fill-opacity="0.85"/>
<path d="M44.4998 34.9002H74.7498C75.4792 34.9002 76.1786 35.2005 76.6944 35.7349C77.2101 36.2694 77.4998 36.9943 77.4998 37.7502C77.4998 38.5061 77.2101 39.231 76.6944 39.7654C76.1786 40.2999 75.4792 40.6002 74.7498 40.6002H41.7498C41.0205 40.6002 40.321 40.2999 39.8053 39.7654C39.2895 39.231 38.9998 38.5061 38.9998 37.7502V3.5502C38.9998 2.79433 39.2895 2.06942 39.8053 1.53494C40.321 1.00046 41.0205 0.700195 41.7498 0.700195C42.4792 0.700195 43.1786 1.00046 43.6944 1.53494C44.2101 2.06942 44.4998 2.79433 44.4998 3.5502V34.9002Z" fill="#8B909A" fill-opacity="0.85"/>
</svg>
