<svg width="151" height="176" viewBox="0 0 151 176" fill="none" xmlns="http://www.w3.org/2000/svg">
<path d="M65.1445 172.441C67.8137 174.97 71.4869 176.219 75.356 175.915C79.2251 175.611 82.9731 173.779 85.7757 170.82L149.177 103.891L150.686 41.8249L110.429 3.68999C107.76 1.16148 104.087 -0.0882183 100.218 0.215807C96.3486 0.519832 92.6006 2.35268 89.798 5.31114L5.2623 94.5502C2.45976 97.5087 0.832346 101.35 0.738054 105.23C0.643762 109.11 2.09032 112.71 4.7595 115.239L65.1445 172.441ZM135.087 48.2129L133.83 99.9345L108.669 76.1002L135.087 48.2129ZM83.7604 41.9215L98.8566 56.2221L88.2896 67.377L73.1934 53.0764L83.7604 41.9215ZM62.6264 64.2313L112.947 111.9L102.38 123.055L52.0595 75.3862L62.6264 64.2313ZM41.4925 86.5411L91.8133 134.21L81.2464 145.365L30.9255 97.696L41.4925 86.5411Z" fill="white" fill-opacity="0.13"/>
</svg>
