<svg width="37" height="33" viewBox="0 0 37 33" fill="none" xmlns="http://www.w3.org/2000/svg">
<path d="M11.7228 19.7999C11.4841 19.7999 11.2551 19.713 11.0864 19.5583C10.9176 19.4035 10.8228 19.1937 10.8228 18.9749C10.8228 18.7561 10.9176 18.5463 11.0864 18.3915C11.2551 18.2368 11.4841 18.1499 11.7228 18.1499H24.3228C24.5614 18.1499 24.7904 18.2368 24.9592 18.3915C25.1279 18.5463 25.2228 18.7561 25.2228 18.9749C25.2228 19.1937 25.1279 19.4035 24.9592 19.5583C24.7904 19.713 24.5614 19.7999 24.3228 19.7999H11.7228ZM11.7228 24.7499C11.4841 24.7499 11.2551 24.663 11.0864 24.5083C10.9176 24.3535 10.8228 24.1437 10.8228 23.9249C10.8228 23.7061 10.9176 23.4963 11.0864 23.3415C11.2551 23.1868 11.4841 23.0999 11.7228 23.0999H24.3228C24.5614 23.0999 24.7904 23.1868 24.9592 23.3415C25.1279 23.4963 25.2228 23.7061 25.2228 23.9249C25.2228 24.1437 25.1279 24.3535 24.9592 24.5083C24.7904 24.663 24.5614 24.7499 24.3228 24.7499H11.7228Z" fill="#35B2F6"/>
<path fill-rule="evenodd" clip-rule="evenodd" d="M20.1559 1.6499H8.12285C7.40677 1.6499 6.72001 1.91066 6.21366 2.37481C5.70732 2.83897 5.42285 3.46849 5.42285 4.1249V28.8749C5.42285 29.5313 5.70732 30.1608 6.21366 30.625C6.72001 31.0891 7.40677 31.3499 8.12285 31.3499H27.9229C28.6389 31.3499 29.3257 31.0891 29.832 30.625C30.3384 30.1608 30.6229 29.5313 30.6229 28.8749V11.8832C30.6227 11.2636 30.369 10.6666 29.9119 10.2101L22.1467 2.4518C21.8936 2.19893 21.5859 1.99706 21.2432 1.85901C20.9005 1.72097 20.5302 1.64975 20.1559 1.6499ZM7.22285 4.1249C7.22285 3.9061 7.31767 3.69626 7.48646 3.54154C7.65524 3.38682 7.88416 3.2999 8.12285 3.2999H20.1559C20.2807 3.29978 20.4043 3.32348 20.5186 3.3695C20.633 3.41551 20.7356 3.48284 20.8201 3.5672L28.5853 11.3255C28.7378 11.4776 28.8226 11.6766 28.8229 11.8832V28.8749C28.8229 29.0937 28.728 29.3035 28.5592 29.4583C28.3905 29.613 28.1615 29.6999 27.9229 29.6999H8.12285C7.88416 29.6999 7.65524 29.613 7.48646 29.4583C7.31767 29.3035 7.22285 29.0937 7.22285 28.8749V4.1249Z" fill="#35B2F6"/>
<path d="M19.8229 11.5499H29.7229C29.9616 11.5499 30.1906 11.6368 30.3593 11.7915C30.5281 11.9463 30.6229 12.1561 30.6229 12.3749C30.6229 12.5937 30.5281 12.8035 30.3593 12.9583C30.1906 13.113 29.9616 13.1999 29.7229 13.1999H18.9229C18.6843 13.1999 18.4553 13.113 18.2866 12.9583C18.1178 12.8035 18.0229 12.5937 18.0229 12.3749V2.4749C18.0229 2.2561 18.1178 2.04626 18.2866 1.89154C18.4553 1.73682 18.6843 1.6499 18.9229 1.6499C19.1616 1.6499 19.3906 1.73682 19.5593 1.89154C19.7281 2.04626 19.8229 2.2561 19.8229 2.4749V11.5499Z" fill="#35B2F6"/>
</svg>
