<svg width="24" height="24" viewBox="0 0 24 24" fill="none" xmlns="http://www.w3.org/2000/svg">
<mask id="mask0_5217_2537" style="mask-type:alpha" maskUnits="userSpaceOnUse" x="0" y="0" width="24" height="24">
<rect width="24" height="24" fill="#D9D9D9"/>
</mask>
<g mask="url(#mask0_5217_2537)">
<path d="M12 2.19238L20.5115 7.24623C20.6577 7.35265 20.7757 7.48406 20.8654 7.64046C20.9551 7.79687 21 7.96675 21 8.15008V18.3847C21 18.845 20.8458 19.2292 20.5375 19.5376C20.2292 19.8459 19.8449 20.0001 19.3846 20.0001H4.61538C4.15513 20.0001 3.77083 19.8459 3.4625 19.5376C3.15417 19.2292 3 18.845 3 18.3847V8.15008C3 7.96675 3.04487 7.79687 3.1346 7.64046C3.22435 7.48406 3.3423 7.35265 3.48845 7.24623L12 2.19238ZM12 12.6501L19.8 8.00008L12 3.35008L4.2 8.00008L12 12.6501ZM12 13.8078L4 9.04623V18.3847C4 18.5642 4.05769 18.7116 4.17308 18.827C4.28846 18.9424 4.43589 19.0001 4.61538 19.0001H19.3846C19.5641 19.0001 19.7115 18.9424 19.8269 18.827C19.9423 18.7116 20 18.5642 20 18.3847V9.04623L12 13.8078Z" fill="#8B909A"/>
</g>
</svg>
