<svg width="24" height="24" viewBox="0 0 24 24" fill="none" xmlns="http://www.w3.org/2000/svg">
<mask id="mask0_944_14928" style="mask-type:alpha" maskUnits="userSpaceOnUse" x="0" y="0" width="24" height="24">
<rect width="24" height="24" fill="#D9D9D9"/>
</mask>
<g mask="url(#mask0_944_14928)">
<path d="M12 16.1L15.1 13L12 9.90005L11.5 10.4L13.75 12.65H8.90005V13.35H13.75L11.5 15.6L12 16.1ZM4.80005 18.7C4.36672 18.7 4.00838 18.5584 3.72505 18.275C3.44172 17.9917 3.30005 17.6334 3.30005 17.2V7.80005C3.30005 7.36672 3.44172 7.00838 3.72505 6.72505C4.00838 6.44172 4.36672 6.30005 4.80005 6.30005H11L12 7.30005H19.2C19.6334 7.30005 19.9917 7.44172 20.275 7.72505C20.5584 8.00838 20.7 8.36672 20.7 8.80005V17.2C20.7 17.6334 20.5584 17.9917 20.275 18.275C19.9917 18.5584 19.6334 18.7 19.2 18.7H4.80005ZM4.00005 7.80005V17.2C4.00005 17.4334 4.07505 17.625 4.22505 17.775C4.37505 17.925 4.56672 18 4.80005 18H19.2C19.4334 18 19.625 17.925 19.775 17.775C19.925 17.625 20 17.4334 20 17.2V8.80005C20 8.56672 19.925 8.37505 19.775 8.22505C19.625 8.07505 19.4334 8.00005 19.2 8.00005H11.725L10.725 7.00005H4.80005C4.56672 7.00005 4.37505 7.07505 4.22505 7.22505C4.07505 7.37505 4.00005 7.56672 4.00005 7.80005ZM4.00005 7.80005V7.00005V18V7.80005Z" fill="#1C1B1F"/>
</g>
</svg>
