<svg width="24" height="24" viewBox="0 0 24 24" fill="none" xmlns="http://www.w3.org/2000/svg">
<path fill-rule="evenodd" clip-rule="evenodd" d="M2.83317 11.0003C2.83317 5.93772 6.93723 1.83366 11.9998 1.83366C17.0624 1.83366 21.1665 5.93772 21.1665 11.0003C21.1665 16.0629 17.0624 20.167 11.9998 20.167C6.93723 20.167 2.83317 16.0629 2.83317 11.0003ZM11.9998 0.166992C6.01675 0.166992 1.1665 5.01724 1.1665 11.0003C1.1665 16.9834 6.01675 21.8337 11.9998 21.8337C17.9829 21.8337 22.8332 16.9834 22.8332 11.0003C22.8332 5.01724 17.9829 0.166992 11.9998 0.166992ZM11.93 14.6947L17.7195 8.69469L16.2802 7.30596L11.1146 12.6594L7.61353 9.93805L6.38615 11.5171L10.5967 14.7899L11.3061 15.3413L11.93 14.6947Z" fill="#35B2F6"/>
</svg>
