<svg width="366" height="323" viewBox="0 0 366 323" fill="none" xmlns="http://www.w3.org/2000/svg">
<ellipse cx="182.017" cy="157.481" rx="157.679" ry="157.481" fill="#E6EEFF"/>
<path d="M200.056 232.709L163.468 237.742L134.96 232.709C138.161 281.82 92.2744 304.24 92.2744 304.24H167.584H242.741C242.741 304.24 196.854 281.82 200.056 232.709Z" fill="#E5EAF2"/>
<path d="M163.468 237.589L134.961 232.556C135.875 246.13 132.979 257.569 128.405 267.178L213.014 278.007C204.935 266.72 198.837 251.621 200.056 232.556L163.468 237.589Z" fill="#94A4C4"/>
<path d="M327.96 314.917C327.96 319.34 324.302 323 319.88 323H16.5075C12.0865 323 8.42773 319.34 8.42773 314.917C8.42773 310.493 12.0865 306.833 16.5075 306.833H320.033C324.454 306.833 327.96 310.493 327.96 314.917Z" fill="#E5EAF2"/>
<path d="M250.364 306.833C250.364 311.256 246.705 314.916 242.284 314.916H94.7136C90.2926 314.916 86.6338 311.256 86.6338 306.833C86.6338 302.41 90.2926 298.749 94.7136 298.749H242.284C246.857 298.749 250.364 302.41 250.364 306.833Z" fill="white"/>
<path d="M344.882 262.145C343.205 275.719 330.856 285.175 317.289 283.498L22.1478 245.825C8.57982 244.148 -0.872003 231.794 0.804933 218.219L21.2331 58.227C22.91 44.8053 35.2584 35.1966 48.8263 36.8743L343.967 74.5465C357.383 76.2242 366.987 88.5783 365.31 102.152L344.882 262.145Z" fill="white"/>
<path d="M343.967 74.5464L48.6738 36.8742C35.2583 35.1965 22.91 44.6527 21.0806 58.2269L0.652446 218.067C0.652446 218.372 0.652449 218.829 0.5 219.134L344.424 263.06C344.424 262.755 344.577 262.45 344.577 261.992L365.005 102.152C366.987 88.7307 357.383 76.3767 343.967 74.5464Z" fill="#61A9FF"/>
<path d="M34.2518 57.032L14.9092 208.785L333.549 249.437L352.892 97.6838L34.2518 57.032Z" fill="#283252"/>
<g opacity="0.1">
<path opacity="0.1" d="M14.8306 108.558L4.15918 191.681L182.067 53.9564L98.9823 43.4326L14.8306 108.558Z" fill="white"/>
<path opacity="0.1" d="M351.285 76.6818C348.998 75.6142 346.559 74.8516 343.967 74.5465L225.819 59.4471L3.0918 231.946C6.59812 239.267 13.6108 244.605 22.1479 245.673L117.276 257.874L351.285 76.6818Z" fill="white"/>
<path opacity="0.1" d="M359.974 143.79L361.956 127.928L183.134 266.263L198.988 268.246L359.974 143.79Z" fill="white"/>
</g>
<g clip-path="url(#clip0_1158_21884)">
<path d="M96.3792 146.324C93.822 148.242 90.1142 147.858 88.1964 145.301C86.2785 142.743 86.6621 139.034 89.2192 137.115L136.143 100.666C138.7 98.7475 142.408 99.1312 144.325 101.689C146.243 104.247 145.86 107.956 143.303 109.874L96.3792 146.324Z" fill="#E6EEFF"/>
<path d="M139.083 143.382C141.001 145.94 140.618 149.649 138.061 151.567C135.503 153.486 131.796 153.102 129.878 150.544L93.4385 103.607C91.5207 101.05 91.9043 97.3407 94.4614 95.4223C97.0185 93.5039 100.726 93.8876 102.644 96.4454L139.083 143.382Z" fill="#E6EEFF"/>
<path d="M233.313 163.845C230.756 165.763 227.048 165.38 225.13 162.822C223.212 160.264 223.596 156.555 226.153 154.637L273.204 118.187C275.761 116.269 279.469 116.652 281.387 119.21C283.305 121.768 282.921 125.477 280.364 127.395L233.313 163.845Z" fill="#E6EEFF"/>
<path d="M276.017 160.903C277.935 163.461 277.551 167.17 274.994 169.089C272.437 171.007 268.729 170.623 266.811 168.065L230.372 121.001C228.454 118.443 228.838 114.734 231.395 112.816C233.952 110.897 237.66 111.281 239.578 113.839L276.017 160.903Z" fill="#E6EEFF"/>
<path d="M202.884 205.41C199.304 204.899 196.746 201.701 197.13 197.992C198.536 186.61 190.481 176.251 179.23 174.844C167.851 173.437 157.494 181.494 156.088 192.749C155.577 196.33 152.38 198.888 148.672 198.504C145.092 197.992 142.535 194.795 143.047 191.086C145.348 172.542 162.353 159.369 180.892 161.799C199.431 164.229 212.601 181.11 210.171 199.655C209.788 203.364 206.591 205.922 202.884 205.41Z" fill="#E6EEFF"/>
</g>
<defs>
<clipPath id="clip0_1158_21884">
<rect width="195.621" height="111.395" fill="white" transform="translate(86.917 94.1433)"/>
</clipPath>
</defs>
</svg>
