<svg width="24" height="24" viewBox="0 0 24 24" fill="none" xmlns="http://www.w3.org/2000/svg">
<mask id="mask0_5217_2557" style="mask-type:alpha" maskUnits="userSpaceOnUse" x="0" y="0" width="24" height="24">
<rect width="24" height="24" fill="#D9D9D9"/>
</mask>
<g mask="url(#mask0_5217_2557)">
<path d="M4.61538 19.0001C4.15513 19.0001 3.77083 18.8459 3.4625 18.5376C3.15417 18.2292 3 17.8449 3 17.3847V7.38466C3 6.92441 3.15417 6.54012 3.4625 6.23179C3.77083 5.92345 4.15513 5.76929 4.61538 5.76929H10.7692L12 7.00006H19.3846C19.8449 7.00006 20.2292 7.15423 20.5375 7.46256C20.8458 7.7709 21 8.15519 21 8.61544V17.3847C21 17.8449 20.8458 18.2292 20.5375 18.5376C20.2292 18.8459 19.8449 19.0001 19.3846 19.0001H4.61538ZM4 7.38466V17.3847C4 17.5642 4.05769 17.7116 4.17308 17.827C4.28846 17.9424 4.43589 18.0001 4.61538 18.0001H19.3846C19.5641 18.0001 19.7115 17.9424 19.8269 17.827C19.9423 17.7116 20 17.5642 20 17.3847V8.61544C20 8.43595 19.9423 8.28852 19.8269 8.17314C19.7115 8.05775 19.5641 8.00006 19.3846 8.00006H11.5981L10.3673 6.76929H4.61538C4.43589 6.76929 4.28846 6.82698 4.17308 6.94236C4.05769 7.05775 4 7.20518 4 7.38466ZM4 7.38466V6.76929V18.0001V7.38466Z" fill="#8B909A"/>
</g>
</svg>
