<svg width="20" height="13" viewBox="0 0 20 13" fill="none" xmlns="http://www.w3.org/2000/svg">
<path d="M1.65005 12.7C1.26672 12.7 0.945882 12.5709 0.687549 12.3125C0.429216 12.0542 0.300049 11.7334 0.300049 11.35V1.80005C0.300049 1.41672 0.454215 1.07088 0.762549 0.762549C1.07088 0.454215 1.41672 0.300049 1.80005 0.300049H8.00005L9.00005 1.30005H16.2C16.4834 1.30005 16.7334 1.36255 16.95 1.48755C17.1667 1.61255 17.3417 1.78338 17.475 2.00005H8.72505L7.72505 1.00005H1.80005C1.56672 1.00005 1.37505 1.07505 1.22505 1.22505C1.07505 1.37505 1.00005 1.56672 1.00005 1.80005V11.2C1.00005 11.3834 1.04588 11.5334 1.13755 11.65C1.22922 11.7667 1.35005 11.8667 1.50005 11.95L3.87505 4.00005H19.825L17.5 11.75C17.4167 12.0334 17.2542 12.2625 17.0125 12.4375C16.7709 12.6125 16.5 12.7 16.2 12.7H1.65005ZM2.22505 12H16.7L18.875 4.70005H4.40005L2.22505 12Z" fill="#8B909A"/>
</svg>
