<svg width="24" height="24" viewBox="0 0 24 24" fill="none" xmlns="http://www.w3.org/2000/svg">
<mask id="mask0_5217_2579" style="mask-type:alpha" maskUnits="userSpaceOnUse" x="0" y="0" width="24" height="24">
<rect width="24" height="24" fill="#D9D9D9"/>
</mask>
<g mask="url(#mask0_5217_2579)">
<path d="M14.3077 16.6924H16.6923C17.0192 16.6924 17.2997 16.5754 17.5337 16.3414C17.7676 16.1074 17.8846 15.827 17.8846 15.5001V10.8078H18.6923V9.92314H16.3846V9.30776H14.6154V9.92314H12.3077V10.8078H13.1154V15.5001C13.1154 15.827 13.2324 16.1074 13.4663 16.3414C13.7003 16.5754 13.9808 16.6924 14.3077 16.6924ZM14.3077 15.8078C14.2179 15.8078 14.1442 15.7789 14.0865 15.7212C14.0288 15.6635 14 15.5898 14 15.5001V10.8078H17V15.5001C17 15.5898 16.9712 15.6635 16.9135 15.7212C16.8558 15.7789 16.7821 15.8078 16.6923 15.8078H14.3077ZM4.61538 19.0001C4.15513 19.0001 3.77083 18.8459 3.4625 18.5376C3.15417 18.2292 3 17.8449 3 17.3847V7.38466C3 6.92441 3.15417 6.54012 3.4625 6.23179C3.77083 5.92345 4.15513 5.76929 4.61538 5.76929H10.7692L12 7.00006H19.3846C19.8449 7.00006 20.2292 7.15423 20.5375 7.46256C20.8458 7.7709 21 8.15519 21 8.61544V17.3847C21 17.8449 20.8458 18.2292 20.5375 18.5376C20.2292 18.8459 19.8449 19.0001 19.3846 19.0001H4.61538ZM4.61538 18.0001H19.3846C19.5641 18.0001 19.7115 17.9424 19.8269 17.827C19.9423 17.7116 20 17.5642 20 17.3847V8.61544C20 8.43595 19.9423 8.28852 19.8269 8.17314C19.7115 8.05775 19.5641 8.00006 19.3846 8.00006H11.5981L10.3673 6.76929H4.61538C4.43589 6.76929 4.28846 6.82698 4.17308 6.94236C4.05769 7.05775 4 7.20518 4 7.38466V17.3847C4 17.5642 4.05769 17.7116 4.17308 17.827C4.28846 17.9424 4.43589 18.0001 4.61538 18.0001Z" fill="#8B909A"/>
</g>
</svg>
