<svg width="13" height="14" viewBox="0 0 13 14" fill="none" xmlns="http://www.w3.org/2000/svg">
<path d="M13.0002 7.14443C13.0002 6.60999 12.9559 6.21999 12.8601 5.81555H6.63281V8.22774H10.2881C10.2144 8.8272 9.81649 9.72998 8.93212 10.3366L8.91972 10.4174L10.8887 11.9122L11.0251 11.9255C12.2779 10.7916 13.0002 9.1233 13.0002 7.14443Z" fill="#30A0DD"/>
<path d="M6.63223 13.5C8.42302 13.5 9.92641 12.9222 11.0245 11.9255L8.93153 10.3366C8.37145 10.7194 7.61973 10.9866 6.63223 10.9866C4.87827 10.9866 3.38961 9.85274 2.85895 8.28552L2.78117 8.292L0.733806 9.84478L0.707031 9.91772C1.79772 12.041 4.0381 13.5 6.63223 13.5Z" fill="#34A853"/>
<path d="M2.85938 8.28552C2.71936 7.88108 2.63833 7.44771 2.63833 6.99996C2.63833 6.55215 2.71936 6.11884 2.85202 5.7144L2.84831 5.62826L0.775292 4.05054L0.707467 4.08215C0.25794 4.96327 0 5.95274 0 6.99996C0 8.04718 0.25794 9.03659 0.707467 9.91771L2.85938 8.28552Z" fill="#FBBC05"/>
<path d="M6.63222 3.01331C7.87767 3.01331 8.71779 3.54053 9.19683 3.98112L11.0687 2.19C9.91908 1.14278 8.42302 0.5 6.63222 0.5C4.03809 0.5 1.79772 1.95888 0.707031 4.08219L2.85158 5.71443C3.38961 4.14721 4.87826 3.01331 6.63222 3.01331Z" fill="#EB4335"/>
</svg>
