<svg width="72" height="56" viewBox="0 0 72 56" fill="none" xmlns="http://www.w3.org/2000/svg">
<g clip-path="url(#clip0_2331_28513)">
<path d="M46.2123 29.4466L53.5415 36.9337L35.9999 54.853C30.1643 48.8917 24.3634 42.9304 18.5278 36.9691L26.2392 29.0917C26.2392 29.0917 25.8224 28.453 25.7529 28.3466C25.0929 27.7433 24.3634 27.8853 23.5645 27.8143C21.0983 27.5659 19.9867 24.4788 21.5498 22.5627C22.314 21.6046 23.634 21.2143 24.815 21.4982C26.2739 21.853 26.795 23.1659 27.2813 24.4788C27.4549 24.9401 27.6286 25.4014 27.9065 25.7917C28.1844 26.182 28.7054 26.6788 28.7054 26.6788C28.7054 26.6788 32.5611 22.7756 35.9305 19.3691C38.4314 21.853 40.9324 24.3369 43.4334 26.8208C43.086 27.2466 42.7734 27.6724 42.4261 28.0982C42.1482 28.0982 41.7661 28.2046 41.3145 28.3111C41.1408 28.3111 39.7861 28.4885 38.9178 29.3756C38.8483 29.4466 38.7788 29.5175 38.7093 29.624C37.7715 30.8659 38.3272 32.5337 38.362 32.6046C38.7093 33.5982 39.4041 34.1304 39.6819 34.3078C40.6545 34.9466 42.0787 35.1949 43.0861 34.5562C44.0587 33.9175 44.4407 32.4982 44.6492 31.824C44.7881 31.3272 44.8923 30.7595 45.3786 30.1562C45.6565 29.8014 46.0039 29.5885 46.2123 29.482V29.4466Z" fill="#A6A6A6" stroke="white" stroke-width="0.620968" stroke-miterlimit="10"/>
<path d="M67.7135 4.46603C68.8598 5.49506 69.1724 7.23377 68.5472 8.36925C68.0261 9.32732 66.8451 9.68216 65.803 10.0015C65.2473 10.1789 64.761 10.2499 64.3789 10.2854C64.0315 10.7467 63.6842 11.1725 63.3368 11.6338C65.8725 14.1176 68.4082 16.637 70.9439 19.1209C65.1431 25.0822 59.3074 31.008 53.5066 36.9692L46.1773 29.4822C45.9342 29.6241 45.6215 29.837 45.3436 30.1563C44.8573 30.7241 44.7531 31.2918 44.6142 31.8241C44.4058 32.4983 44.0237 33.9176 43.0511 34.5564C42.0785 35.1951 40.6196 34.9467 39.647 34.308C39.4038 34.1305 38.6744 33.5983 38.327 32.6047C38.327 32.5338 37.7712 30.866 38.6744 29.6241C38.7438 29.5531 38.8133 29.4467 38.8828 29.3757C39.4386 28.808 40.2027 28.6305 41.2796 28.3112C41.7311 28.2047 42.1132 28.1338 42.3911 28.0983C42.7385 27.6725 43.0511 27.2467 43.3984 26.8209C40.8975 24.337 38.3965 21.8531 35.8955 19.3693C38.3965 16.7434 40.9322 14.1531 43.4332 11.5273C43.4332 11.5273 44.0932 12.2015 44.1279 12.2015C44.1279 12.2015 44.7879 12.8757 44.8226 12.8757C44.8226 13.1241 44.7879 13.5499 44.8226 14.0112C44.8921 14.508 45.1352 16.1402 46.351 16.7789C46.9068 17.0628 47.4625 17.0273 47.7057 16.9918C49.2341 16.8499 50.1025 15.5015 50.2761 15.2531C50.3456 15.1112 51.5614 13.2305 50.7972 11.8822C49.9982 10.4273 47.4625 9.93054 47.4625 9.93054C47.4625 9.93054 47.2541 9.89506 46.872 9.78861C46.5247 9.39828 46.1773 9.04345 45.7952 8.65312C46.6983 7.73054 47.6015 6.77248 48.5393 5.81441C50.2067 4.14667 51.8392 2.51442 53.4718 0.953125C55.9033 3.61442 58.3696 6.27571 60.8011 8.937C61.1832 8.61764 61.5653 8.29829 61.9474 7.97893C61.9474 7.55312 62.0168 6.87893 62.2947 6.13377C62.4684 5.67248 62.781 4.82087 63.5105 4.28861C64.5178 3.50796 66.3588 3.29506 67.6093 4.43054L67.7135 4.46603Z" fill="#A6A6A6"/>
<path d="M53.5418 37.4659L46.143 29.9078C45.9346 30.0498 45.7957 30.1917 45.622 30.3691C45.2746 30.7949 45.1357 31.2207 45.0315 31.682L44.962 31.8949C44.7536 32.6401 44.302 34.1304 43.26 34.8401C42.1137 35.5852 40.4811 35.2659 39.4738 34.5917C39.0917 34.3433 38.3969 33.7401 38.0149 32.7111C38.0149 32.6401 37.3896 30.7594 38.4317 29.3756C38.5012 29.2691 38.5706 29.1982 38.6748 29.0917C39.3001 28.453 40.099 28.2401 41.2453 27.9562C41.5926 27.8852 41.9053 27.8143 42.2526 27.7433L42.9473 26.8562L35.4097 19.3691L35.6528 19.0852C38.1538 16.4594 40.6895 13.8691 43.1905 11.2433L43.4336 10.9594L44.3715 11.9175C44.3715 11.9175 45.0315 12.5917 45.0662 12.5917L45.2052 12.7336V12.9111C45.1704 13.2659 45.1704 13.6207 45.2052 13.9756C45.3788 15.253 45.8304 16.1046 46.5599 16.4594C47.0462 16.7078 47.5325 16.6723 47.7409 16.6369C49.0261 16.5304 49.825 15.4304 50.0334 15.0756C50.2419 14.7562 51.145 13.1949 50.5545 12.0949C49.8598 10.8175 47.4977 10.3207 47.463 10.3207L46.7683 10.1433L45.3788 8.68847L45.622 8.44009C46.5251 7.51751 47.4283 6.55944 48.3661 5.60138C50.0334 3.93363 51.666 2.30138 53.2986 0.740086L53.5765 0.491699L53.8196 0.77557C56.1122 3.25944 58.4048 5.74331 60.6626 8.22718L60.9058 8.47557L61.6699 7.83686C61.6699 7.19815 61.8089 6.59492 62.0173 6.02718C62.2257 5.49492 62.5731 4.60783 63.3373 4.0046C64.4835 3.11751 66.533 2.94009 67.9224 4.14654C69.1381 5.24654 69.555 7.19815 68.8255 8.51105C68.2003 9.61105 66.9845 9.96589 65.873 10.2852C65.4561 10.4272 65.0046 10.4982 64.553 10.5691L64.4835 10.6401C64.2751 10.924 64.032 11.2078 63.8236 11.4917L64.032 11.6691C66.4287 14.0111 68.8255 16.3885 71.2223 18.7304L71.5002 19.0143L53.5418 37.3949V37.4659ZM46.282 28.9498L53.5418 36.3659L70.4581 19.0498C68.1308 16.7788 65.8382 14.5078 63.5457 12.2369L62.8857 11.5627L63.0941 11.2788C63.372 10.8885 63.6846 10.5336 63.9972 10.1433L64.2404 9.82396H64.3793C64.8309 9.75299 65.2825 9.68202 65.734 9.54009C66.7414 9.22073 67.7834 8.93686 68.235 8.08525C68.7908 7.0917 68.4434 5.53041 67.4708 4.6788C66.3593 3.72073 64.7614 3.86267 63.8236 4.57234C63.1983 5.03363 62.9204 5.7788 62.7467 6.24009C62.5383 6.80783 62.4341 7.37557 62.4341 7.9788V8.15622L60.871 9.46912L60.1416 8.68847C57.9532 6.31105 55.7301 3.89815 53.5418 1.48525C52.0134 2.94009 50.4503 4.50138 48.8872 6.06267C48.0535 6.91428 47.2198 7.76589 46.4209 8.61751L47.1504 9.39815L47.6367 9.5046C47.6367 9.5046 50.3461 10.0723 51.2145 11.6336C51.9787 13.053 51.006 14.8627 50.6587 15.3949C50.3808 15.8207 49.4082 17.1691 47.8104 17.3111C47.5672 17.3111 46.9072 17.382 46.2472 17.0627C45.3094 16.5659 44.7189 15.5369 44.5105 14.0111C44.4757 13.6562 44.441 13.3014 44.4757 12.9465C44.2673 12.7691 43.9199 12.4143 43.9199 12.3788L43.5031 11.953C41.1411 14.4014 38.8138 16.8143 36.4865 19.2627L43.9894 26.6788L42.6695 28.3465H42.5305C42.1832 28.4175 41.8358 28.4885 41.4884 28.5594C40.4464 28.8433 39.7169 29.0207 39.2653 29.5175C39.1959 29.5885 39.1611 29.6594 39.0917 29.7304C38.2927 30.7949 38.779 32.2852 38.779 32.3562C39.0569 33.1723 39.6127 33.6336 39.9253 33.8465C40.7242 34.3788 42.0442 34.6627 42.9126 34.0949C43.7463 33.5627 44.1284 32.2498 44.302 31.6111L44.3715 31.3982C44.4757 30.9369 44.6494 30.3691 45.101 29.8014C45.3788 29.482 45.6915 29.2336 46.0388 29.0207L46.282 28.8788V28.9498Z" fill="white"/>
<path d="M33.7069 5.45938C34.1237 6.34648 34.2627 7.411 33.8459 8.29809C33.3248 9.46906 32.1785 10.1078 30.9628 10.0368C30.5112 10.0368 30.2333 9.8239 29.8165 10.0368C29.4691 10.2142 29.226 10.5691 28.9481 10.8884C28.6007 11.3142 28.4965 11.3497 28.6702 11.7755C28.8092 12.0949 29.2607 12.4142 29.5039 12.6626C30.3723 13.5852 31.2407 14.4723 32.1091 15.3949C32.3522 15.6433 35.93 19.2981 35.8953 19.3691C33.4985 21.8174 31.067 24.2304 28.6702 26.6787C28.3923 26.4304 27.906 25.8626 27.8713 25.7916C27.5587 25.4013 27.4197 24.94 27.246 24.4787C26.725 23.2013 26.2387 21.8884 24.7798 21.4981C23.5988 21.2142 22.2788 21.64 21.5146 22.5626C19.9515 24.4787 21.0631 27.5658 23.5293 27.8142C24.3282 27.8852 25.0577 27.7433 25.7177 28.3465C25.8219 28.4529 26.3777 28.9142 26.204 29.0916L18.4926 36.9691C12.6917 31.0787 6.85612 25.1884 1.02051 19.2981C3.55622 16.6723 6.09194 14.082 8.59291 11.4562C8.59291 11.4562 9.46131 12.2368 9.53078 12.3078C9.94761 12.6981 9.94761 12.6981 10.0171 13.1594C10.1213 13.9755 9.98235 14.6497 10.3992 15.4304C11.4413 17.311 13.838 17.5239 15.3664 16.1045C16.8948 14.7562 17.0685 11.74 15.158 10.5691C14.6369 10.2497 14.0117 10.2852 13.4212 10.3207C12.657 10.3562 12.5875 10.4271 12.1012 9.85938C11.7539 9.46906 11.4413 9.07874 11.0939 8.7239C13.5254 6.311 15.9916 3.86261 18.4231 1.44971L23.1472 6.24003C23.9114 6.98519 24.6409 8.04971 25.5093 8.61745C25.9956 8.9368 26.0303 8.90132 26.5513 8.54648C26.9334 8.26261 27.3155 7.90777 27.4197 7.411C27.4892 7.12713 27.4545 6.87874 27.4892 6.59487C27.5934 4.67874 29.5733 3.33035 31.3449 3.64971C32.908 3.93358 33.6027 5.35293 33.6722 5.49487L33.7069 5.45938Z" fill="#A6A6A6"/>
<path d="M18.5279 37.5015L0.5 19.2983L8.4545 11.1015H8.59344C8.59344 11.1015 8.76712 11.1015 9.73973 11.9531L9.8092 12.0241C10.2955 12.4854 10.3302 12.5564 10.3997 13.0886C10.3997 13.337 10.4344 13.5854 10.4692 13.8338C10.4692 14.3306 10.4692 14.7564 10.7471 15.1822C11.1639 15.9273 11.8586 16.4241 12.6575 16.566C13.5259 16.708 14.4638 16.4241 15.1585 15.7854C15.888 15.1112 16.3048 13.9757 16.2006 12.9112C16.1311 12.0241 15.6795 11.2789 15.0196 10.8886C14.6027 10.6402 14.1164 10.6402 13.4912 10.6757H13.3175C12.6575 10.7112 12.4144 10.7112 11.8586 10.0725L10.6081 8.65313L10.8513 8.40474C13.1438 6.13378 15.4017 3.86281 17.6942 1.59184L18.4237 0.84668L23.4256 5.88539C23.6688 6.13378 23.9119 6.41765 24.1898 6.70152C24.6761 7.26926 25.1972 7.837 25.7529 8.22733C25.8919 8.33378 25.9961 8.36926 26.0308 8.40474C26.0656 8.40474 26.2392 8.26281 26.3782 8.15636C26.6908 7.90797 27.0034 7.6241 27.1076 7.23378C27.1076 7.09184 27.1076 6.91442 27.1424 6.737C27.1424 6.66603 27.1424 6.55958 27.1424 6.45313C27.2118 5.49507 27.6634 4.60797 28.4623 3.96926C29.3307 3.29507 30.4423 2.97571 31.4496 3.15313C33.1864 3.47249 33.9506 4.99829 34.0548 5.17571C34.5758 6.24023 34.6453 7.4112 34.1937 8.36926C33.638 9.64668 32.3875 10.4273 30.9286 10.3209C30.7549 10.3209 30.6159 10.3209 30.5117 10.2499C30.2686 10.2144 30.1296 10.1789 29.9907 10.2499C29.7823 10.3564 29.6086 10.5693 29.4002 10.8176L29.0876 11.1725C29.0876 11.1725 28.9834 11.3144 28.9486 11.3499C28.9486 11.3499 28.9486 11.3854 29.0181 11.4918C29.0876 11.6338 29.3307 11.8467 29.5044 12.0241C29.6086 12.1306 29.7128 12.2015 29.7823 12.2725C30.477 13.0176 31.2065 13.7628 31.9359 14.508L32.4917 15.0757C35.1548 17.7961 36.3937 19.2628 36.2084 19.4757C33.7769 21.9241 31.3801 24.337 28.9834 26.7854L28.7402 27.0338L28.4971 26.7854C28.1844 26.5015 27.6634 25.9338 27.6287 25.8628C27.316 25.437 27.1424 25.0112 26.9687 24.5854L26.8992 24.4435C26.4129 23.2015 25.9266 22.0306 24.6761 21.7112C23.6341 21.4628 22.453 21.8531 21.7931 22.6693C21.1331 23.4854 20.9941 24.6209 21.3762 25.6144C21.7583 26.5725 22.592 27.2112 23.5646 27.3176C23.7383 27.3176 23.9119 27.3176 24.0856 27.3176C24.7109 27.3176 25.3361 27.3531 25.9613 27.9209C26.3782 28.2757 26.6213 28.5596 26.6213 28.8435V29.0209L26.4824 29.1983L18.5279 37.3241V37.5015ZM1.54207 19.2983L18.4931 36.4725L25.7877 29.0209C25.7877 29.0209 25.6487 28.8789 25.475 28.737C25.0235 28.3467 24.5719 28.3112 24.0161 28.3112C23.8425 28.3112 23.6341 28.3112 23.4256 28.3112C22.1751 28.1693 21.1331 27.3886 20.6468 26.1467C20.1257 24.8693 20.3341 23.4499 21.1678 22.4209C22.0015 21.3918 23.4604 20.8951 24.8151 21.2144C26.4477 21.6047 27.0382 23.0951 27.5592 24.408L27.6287 24.5499C27.7676 24.9402 27.9413 25.2951 28.1497 25.6144C28.1497 25.6144 28.4276 25.9338 28.6707 26.1822C30.9286 23.9112 33.1517 21.6402 35.4095 19.3693C35.0621 19.0144 34.1937 18.0918 31.9359 15.7854L31.3801 15.2176C30.6507 14.4725 29.9212 13.7273 29.2265 12.9467C29.157 12.8757 29.0876 12.8047 28.9834 12.7338C28.7402 12.5209 28.4623 12.237 28.3234 11.9531C28.0455 11.3854 28.2192 11.137 28.4971 10.8176L28.775 10.4628C28.9834 10.1789 29.2265 9.89507 29.6086 9.71765C29.9907 9.54023 30.3033 9.57571 30.5812 9.64668C30.6854 9.64668 30.7896 9.68216 30.9286 9.68216C32.0054 9.75313 33.0127 9.14991 33.4643 8.15636C33.7769 7.4112 33.7422 6.48862 33.3253 5.637C33.3253 5.637 32.6654 4.25313 31.2412 4.00474C30.4423 3.86281 29.5391 4.1112 28.8444 4.64345C28.2192 5.14023 27.8371 5.84991 27.8023 6.59507C27.8023 6.66603 27.8023 6.737 27.8023 6.84345C27.8023 7.05636 27.8023 7.26926 27.7329 7.48216C27.5939 8.12087 27.1424 8.5112 26.7255 8.83055C26.1003 9.29184 25.8919 9.36281 25.2666 8.937C24.6414 8.5112 24.1204 7.90797 23.5646 7.30474C23.3214 7.02087 23.0783 6.737 22.8351 6.5241L18.3542 2.01765L18.1458 2.23055C15.9574 4.43055 13.7691 6.59507 11.546 8.79507L12.3102 9.68216C12.5417 9.94238 12.8196 10.0607 13.1438 10.037H13.3175C13.8733 10.0015 14.6027 9.93055 15.2627 10.3209C16.1311 10.8531 16.6869 11.7757 16.7911 12.9112C16.93 14.2241 16.409 15.608 15.5059 16.4241C14.6375 17.2047 13.4912 17.5596 12.4144 17.3822C11.3723 17.2047 10.5039 16.6015 9.98288 15.6435C9.63552 15.0402 9.60078 14.4725 9.60078 13.9402C9.60078 13.7273 9.60078 13.5144 9.56605 13.266C9.54289 13.0531 9.43868 12.8639 9.25342 12.6983L9.14922 12.5918C9.14922 12.5918 8.76712 12.237 8.55871 12.0596L1.54207 19.2983Z" fill="white"/>
</g>
<defs>
<clipPath id="clip0_2331_28513">
<rect width="71" height="55" fill="white" transform="translate(0.5 0.491699)"/>
</clipPath>
</defs>
</svg>
