<svg width="26" height="29" viewBox="0 0 26 29" fill="none" xmlns="http://www.w3.org/2000/svg">
<path d="M12.1875 16.7656H10.5625C10.4548 16.7656 10.3514 16.8134 10.2752 16.8983C10.1991 16.9833 10.1562 17.0986 10.1562 17.2188V23.5625C10.1562 23.6827 10.1991 23.7979 10.2752 23.8829C10.3514 23.9679 10.4548 24.0156 10.5625 24.0156C10.6702 24.0156 10.7736 23.9679 10.8498 23.8829C10.9259 23.7979 10.9688 23.6827 10.9688 23.5625V22.2031H12.1875C12.834 22.2031 13.454 21.9167 13.9111 21.4068C14.3682 20.897 14.625 20.2054 14.625 19.4844C14.625 18.7633 14.3682 18.0718 13.9111 17.5619C13.454 17.0521 12.834 16.7656 12.1875 16.7656ZM12.1875 21.2969H10.9688V17.6719H12.1875C12.6185 17.6719 13.0318 17.8628 13.3365 18.2027C13.6413 18.5427 13.8125 19.0037 13.8125 19.4844C13.8125 19.9651 13.6413 20.4261 13.3365 20.766C13.0318 21.1059 12.6185 21.2969 12.1875 21.2969ZM21.5312 20.8438V22.7548C21.5314 22.8717 21.491 22.9841 21.4185 23.0686C21.1733 23.3637 20.8767 23.5999 20.5468 23.7627C20.2169 23.9256 19.8607 24.0116 19.5 24.0156C17.9319 24.0156 16.6562 22.3889 16.6562 20.3906C16.6562 18.3923 17.9319 16.7656 19.5 16.7656C20.0162 16.7678 20.52 16.9426 20.9463 17.2675C20.9905 17.3008 21.0284 17.3435 21.0578 17.3932C21.0872 17.4428 21.1075 17.4984 21.1177 17.5569C21.1278 17.6153 21.1275 17.6754 21.1169 17.7337C21.1062 17.792 21.0853 17.8474 21.0554 17.8967C21.0256 17.9461 20.9873 17.9883 20.9427 18.0211C20.8982 18.0539 20.8483 18.0766 20.796 18.088C20.7436 18.0993 20.6897 18.099 20.6374 18.087C20.5851 18.0751 20.5355 18.0518 20.4912 18.0185C20.1993 17.7951 19.854 17.6744 19.5 17.6719C18.3828 17.6719 17.4688 18.8919 17.4688 20.3906C17.4688 21.8893 18.3828 23.1094 19.5 23.1094C19.9531 23.1035 20.3879 22.9087 20.7188 22.5634V21.2969H20.3125C20.2048 21.2969 20.1014 21.2491 20.0252 21.1642C19.9491 21.0792 19.9062 20.9639 19.9062 20.8438C19.9062 20.7236 19.9491 20.6083 20.0252 20.5233C20.1014 20.4384 20.2048 20.3906 20.3125 20.3906H21.125C21.2327 20.3906 21.3361 20.4384 21.4123 20.5233C21.4884 20.6083 21.5312 20.7236 21.5312 20.8438ZM7.71875 17.2188V21.5234C7.71875 22.1844 7.48334 22.8183 7.06432 23.2857C6.64529 23.7531 6.07697 24.0156 5.48438 24.0156C4.89178 24.0156 4.32346 23.7531 3.90443 23.2857C3.48541 22.8183 3.25 22.1844 3.25 21.5234C3.25 21.4033 3.2928 21.288 3.36899 21.203C3.44517 21.1181 3.54851 21.0703 3.65625 21.0703C3.76399 21.0703 3.86733 21.1181 3.94351 21.203C4.0197 21.288 4.0625 21.4033 4.0625 21.5234C4.0625 21.9441 4.2123 22.3474 4.47896 22.6449C4.74561 22.9423 5.10727 23.1094 5.48438 23.1094C5.86148 23.1094 6.22314 22.9423 6.48979 22.6449C6.75645 22.3474 6.90625 21.9441 6.90625 21.5234V17.2188C6.90625 17.0986 6.94905 16.9833 7.02524 16.8983C7.10142 16.8134 7.20476 16.7656 7.3125 16.7656C7.42024 16.7656 7.52358 16.8134 7.59976 16.8983C7.67595 16.9833 7.71875 17.0986 7.71875 17.2188ZM21.4124 9.64816L15.7249 3.30441C15.6872 3.26235 15.6424 3.22899 15.593 3.20625C15.5437 3.18351 15.4909 3.17183 15.4375 3.17188H5.6875C5.36427 3.17188 5.05427 3.31509 4.82571 3.57003C4.59715 3.82496 4.46875 4.17072 4.46875 4.53125V12.6875C4.46875 12.8077 4.51155 12.9229 4.58774 13.0079C4.66392 13.0929 4.76726 13.1406 4.875 13.1406C4.98274 13.1406 5.08608 13.0929 5.16226 13.0079C5.23845 12.9229 5.28125 12.8077 5.28125 12.6875V4.53125C5.28125 4.41107 5.32405 4.29582 5.40024 4.21084C5.47642 4.12587 5.57976 4.07813 5.6875 4.07813H15.0312V9.96875C15.0312 10.0889 15.0741 10.2042 15.1502 10.2892C15.2264 10.3741 15.3298 10.4219 15.4375 10.4219H20.7188V12.6875C20.7188 12.8077 20.7616 12.9229 20.8377 13.0079C20.9139 13.0929 21.0173 13.1406 21.125 13.1406C21.2327 13.1406 21.3361 13.0929 21.4123 13.0079C21.4884 12.9229 21.5312 12.8077 21.5312 12.6875V9.96875C21.5313 9.90923 21.5208 9.85028 21.5004 9.79527C21.48 9.74026 21.4501 9.69028 21.4124 9.64816ZM15.8438 9.51562V4.71816L20.1439 9.51562H15.8438Z" fill="#FF2A18"/>
</svg>
