<svg width="28" height="28" viewBox="0 0 28 28" fill="none" xmlns="http://www.w3.org/2000/svg">
<g filter="url(#filter0_d_944_14925)">
<mask id="mask0_944_14925" style="mask-type:alpha" maskUnits="userSpaceOnUse" x="2" y="0" width="24" height="24">
<rect x="2" width="24" height="24" fill="#D9D9D9"/>
</mask>
<g mask="url(#mask0_944_14925)">
<path d="M5.6751 16.2C5.4751 16.0667 5.30843 15.8958 5.1751 15.6875C5.04176 15.4792 4.9751 15.25 4.9751 15V7.15C4.9751 7 5.0126 6.86667 5.0876 6.75C5.1626 6.63333 5.2751 6.53333 5.4251 6.45L12.8251 2.75L20.0751 6.45C20.2084 6.5 20.3084 6.59167 20.3751 6.725C20.4418 6.85833 20.4918 7 20.5251 7.15H19.9251L12.8251 3.55L5.6751 7.1V16.2ZM10.1251 19.7C9.69176 19.7 9.33343 19.5583 9.0501 19.275C8.76676 18.9917 8.6251 18.6333 8.6251 18.2V10.8C8.6251 10.3667 8.76676 10.0083 9.0501 9.725C9.33343 9.44167 9.69176 9.3 10.1251 9.3H21.5251C21.9584 9.3 22.3168 9.44167 22.6001 9.725C22.8834 10.0083 23.0251 10.3667 23.0251 10.8V18.2C23.0251 18.6333 22.8834 18.9917 22.6001 19.275C22.3168 19.5583 21.9584 19.7 21.5251 19.7H10.1251ZM15.8251 14.15L9.3251 10.8V18.2C9.3251 18.4333 9.4001 18.625 9.5501 18.775C9.7001 18.925 9.89176 19 10.1251 19H21.5251C21.7584 19 21.9501 18.925 22.1001 18.775C22.2501 18.625 22.3251 18.4333 22.3251 18.2V10.8L15.8251 14.15ZM15.8251 13.35L22.0251 10.15C21.9418 10.1 21.8626 10.0625 21.7876 10.0375C21.7126 10.0125 21.6251 10 21.5251 10H10.1251C10.0418 10 9.95843 10.0125 9.8751 10.0375C9.79176 10.0625 9.70843 10.1 9.6251 10.15L15.8251 13.35ZM22.3251 10.8C22.3251 10.6667 22.2959 10.5458 22.2376 10.4375C22.1793 10.3292 22.1084 10.2333 22.0251 10.15C21.9418 10.1 21.8626 10.0625 21.7876 10.0375C21.7126 10.0125 21.6251 10 21.5251 10H10.1251C10.0418 10 9.95843 10.0125 9.8751 10.0375C9.79176 10.0625 9.70843 10.1 9.6251 10.15C9.54176 10.2333 9.47093 10.3292 9.4126 10.4375C9.35426 10.5458 9.3251 10.6667 9.3251 10.8V10H22.3251V10.8Z" fill="#1C1B1F"/>
</g>
</g>
<defs>
<filter id="filter0_d_944_14925" x="0.975098" y="2.75" width="26.05" height="24.95" filterUnits="userSpaceOnUse" color-interpolation-filters="sRGB">
<feFlood flood-opacity="0" result="BackgroundImageFix"/>
<feColorMatrix in="SourceAlpha" type="matrix" values="0 0 0 0 0 0 0 0 0 0 0 0 0 0 0 0 0 0 127 0" result="hardAlpha"/>
<feOffset dy="4"/>
<feGaussianBlur stdDeviation="2"/>
<feComposite in2="hardAlpha" operator="out"/>
<feColorMatrix type="matrix" values="0 0 0 0 0 0 0 0 0 0 0 0 0 0 0 0 0 0 0.25 0"/>
<feBlend mode="normal" in2="BackgroundImageFix" result="effect1_dropShadow_944_14925"/>
<feBlend mode="normal" in="SourceGraphic" in2="effect1_dropShadow_944_14925" result="shape"/>
</filter>
</defs>
</svg>
