<svg width="22" height="24" viewBox="0 0 22 24" fill="none" xmlns="http://www.w3.org/2000/svg">
<path d="M4 22.5001V6.16675M18 21.3334C18.6188 21.3334 19.2123 21.0876 19.6499 20.65C20.0875 20.2124 20.3333 19.6189 20.3333 19.0001C20.3333 18.3812 20.0875 17.7878 19.6499 17.3502C19.2123 16.9126 18.6188 16.6667 18 16.6667C17.3812 16.6667 16.7877 16.9126 16.3501 17.3502C15.9125 17.7878 15.6667 18.3812 15.6667 19.0001C15.6667 19.6189 15.9125 20.2124 16.3501 20.65C16.7877 21.0876 17.3812 21.3334 18 21.3334Z" stroke="#0D99FF" stroke-width="1.5" stroke-linecap="round" stroke-linejoin="round"/>
<path d="M4.00008 6.16667V8.5C4.00008 12.5833 6.91675 19 13.9167 19H15.6667M4.00008 6.16667C4.61892 6.16667 5.21241 5.92083 5.65 5.48325C6.08758 5.04566 6.33341 4.45217 6.33341 3.83333C6.33341 3.21449 6.08758 2.621 5.65 2.18342C5.21241 1.74583 4.61892 1.5 4.00008 1.5C3.38124 1.5 2.78775 1.74583 2.35017 2.18342C1.91258 2.621 1.66675 3.21449 1.66675 3.83333C1.66675 4.45217 1.91258 5.04566 2.35017 5.48325C2.78775 5.92083 3.38124 6.16667 4.00008 6.16667Z" stroke="#0D99FF" stroke-width="1.5" stroke-linecap="round" stroke-linejoin="round"/>
</svg>
