<svg width="24" height="24" viewBox="0 0 24 24" fill="none" xmlns="http://www.w3.org/2000/svg">
<mask id="mask0_948_15178" style="mask-type:alpha" maskUnits="userSpaceOnUse" x="0" y="0" width="24" height="24">
<rect width="24" height="24" fill="#D9D9D9"/>
</mask>
<g mask="url(#mask0_948_15178)">
<path d="M15.9998 8.8001V5.8001H7.9998V8.8001H7.2998V5.1001H16.6998V8.8001H15.9998ZM17.4998 12.0001C17.7831 12.0001 18.0206 11.9043 18.2123 11.7126C18.404 11.5209 18.4998 11.2834 18.4998 11.0001C18.4998 10.7168 18.404 10.4793 18.2123 10.2876C18.0206 10.0959 17.7831 10.0001 17.4998 10.0001C17.2165 10.0001 16.979 10.0959 16.7873 10.2876C16.5956 10.4793 16.4998 10.7168 16.4998 11.0001C16.4998 11.2834 16.5956 11.5209 16.7873 11.7126C16.979 11.9043 17.2165 12.0001 17.4998 12.0001ZM15.9998 19.0001V14.3001H7.9998V19.0001H15.9998ZM16.6998 19.7001H7.2998V15.7001H4.0498V10.5001C4.0498 10.0184 4.2123 9.61468 4.5373 9.28885C4.8623 8.96301 5.26647 8.8001 5.7498 8.8001H18.2498C18.7315 8.8001 19.1352 8.96301 19.4611 9.28885C19.7869 9.61468 19.9498 10.0184 19.9498 10.5001V15.7001H16.6998V19.7001ZM19.2498 15.0001V10.5001C19.2498 10.2168 19.154 9.97926 18.9623 9.7876C18.7706 9.59593 18.5331 9.5001 18.2498 9.5001H5.7498C5.46647 9.5001 5.22897 9.59593 5.0373 9.7876C4.84564 9.97926 4.7498 10.2168 4.7498 10.5001V15.0001H7.2998V13.6001H16.6998V15.0001H19.2498Z" fill="#1C1B1F"/>
</g>
</svg>
