<svg width="16" height="19" viewBox="0 0 16 19" fill="none" xmlns="http://www.w3.org/2000/svg">
<path d="M0.5 15.7306V14.7306H2.5V7.23064C2.5 5.89859 2.92308 4.72711 3.76923 3.71621C4.61538 2.70531 5.6923 2.07165 7 1.81523V1.11523C7 0.826768 7.09455 0.587985 7.28365 0.398885C7.47275 0.209785 7.71153 0.115234 8 0.115234C8.28847 0.115234 8.52725 0.209785 8.71635 0.398885C8.90545 0.587985 9 0.826768 9 1.11523V1.81523C10.3077 2.07165 11.3846 2.70531 12.2308 3.71621C13.0769 4.72711 13.5 5.89859 13.5 7.23064V14.7306H15.5V15.7306H0.5ZM8 18.6153C7.56538 18.6153 7.1875 18.4611 6.86635 18.1527C6.5452 17.8444 6.38463 17.4601 6.38463 16.9999H9.61537C9.61537 17.4601 9.46121 17.8444 9.15287 18.1527C8.84454 18.4611 8.46025 18.6153 8 18.6153ZM3.5 14.7306H12.5V7.23061C12.5 5.97676 12.0635 4.91329 11.1904 4.04021C10.3173 3.16716 9.25385 2.73064 8 2.73064C6.74615 2.73064 5.68269 3.16717 4.80963 4.04023C3.93654 4.91332 3.5 5.97679 3.5 7.23064V14.7306Z" fill="#1C1B1F"/>
</svg>
