<svg width="24" height="24" viewBox="0 0 24 24" fill="none" xmlns="http://www.w3.org/2000/svg">
<mask id="mask0_5217_2531" style="mask-type:alpha" maskUnits="userSpaceOnUse" x="0" y="0" width="24" height="24">
<rect width="24" height="24" fill="#D9D9D9"/>
</mask>
<g mask="url(#mask0_5217_2531)">
<path d="M11.5 13.3077V8.61925L9.4 10.7192L8.6923 10L12 6.6923L15.3077 10L14.6 10.7192L12.5 8.61925V13.3077H11.5ZM5.61538 20C5.15513 20 4.77083 19.8458 4.4625 19.5375C4.15417 19.2292 4 18.8449 4 18.3846V5.61537C4 5.15512 4.15417 4.77083 4.4625 4.4625C4.77083 4.15417 5.15513 4 5.61538 4H18.3846C18.8449 4 19.2292 4.15417 19.5375 4.4625C19.8458 4.77083 20 5.15512 20 5.61537V18.3846C20 18.8449 19.8458 19.2292 19.5375 19.5375C19.2292 19.8458 18.8449 20 18.3846 20H5.61538ZM5.61538 19H18.3846C18.5641 19 18.7115 18.9423 18.8269 18.8269C18.9423 18.7115 19 18.5641 19 18.3846V15.6154H15.4231C15.0513 16.2487 14.5644 16.7404 13.9625 17.0904C13.3606 17.4404 12.7064 17.6154 12 17.6154C11.2936 17.6154 10.6394 17.4404 10.0375 17.0904C9.43558 16.7404 8.94872 16.2487 8.57692 15.6154H5V18.3846C5 18.5641 5.05769 18.7115 5.17308 18.8269C5.28846 18.9423 5.43589 19 5.61538 19ZM12 16.6154C12.6333 16.6154 13.2083 16.432 13.725 16.0654C14.2417 15.6987 14.6 15.2154 14.8 14.6154H19V5.61537C19 5.43589 18.9423 5.28846 18.8269 5.17307C18.7115 5.05769 18.5641 5 18.3846 5H5.61538C5.43589 5 5.28846 5.05769 5.17308 5.17307C5.05769 5.28846 5 5.43589 5 5.61537V14.6154H9.2C9.4 15.2154 9.75833 15.6987 10.275 16.0654C10.7917 16.432 11.3667 16.6154 12 16.6154ZM5.61538 19H5H19H5.61538Z" fill="#8B909A"/>
</g>
</svg>
