<svg width="237" height="237" viewBox="0 0 237 237" fill="none" xmlns="http://www.w3.org/2000/svg">
<g clip-path="url(#clip0_890_14663)">
<path d="M169.65 70.427C164.609 65.0494 157.617 61.9144 150.213 61.7118C142.808 61.5091 135.596 64.2554 130.165 69.3465C124.734 74.4376 121.528 81.4564 121.252 88.8589C120.976 96.2613 123.653 103.441 128.694 108.819C133.735 114.196 140.727 117.331 148.131 117.534C155.536 117.737 162.747 114.99 168.179 109.899C173.61 104.808 176.816 97.7894 177.092 90.3869C177.368 82.9844 174.691 75.8046 169.65 70.427ZM142.213 143.762L94.6963 93.0713C90.9157 89.038 85.6717 86.6868 80.1181 86.5349C74.5644 86.3829 69.156 88.4426 65.0827 92.2609C53.6558 102.972 48.8641 116.206 49.8254 129.647C50.7751 142.87 57.2521 155.731 67.2591 166.406C77.2661 177.082 89.6818 184.376 102.816 186.177C116.157 187.995 129.683 184.078 141.109 173.366C145.183 169.548 147.587 164.284 147.794 158.732C148.001 153.18 145.994 147.795 142.213 143.762Z" fill="white" fill-opacity="0.13"/>
</g>
<defs>
<clipPath id="clip0_890_14663">
<rect width="166.751" height="168.411" fill="white" transform="translate(122.869) rotate(46.8512)"/>
</clipPath>
</defs>
</svg>
