<svg width="25" height="26" viewBox="0 0 25 26" fill="none" xmlns="http://www.w3.org/2000/svg">
<path d="M5.85938 15.0312H4.29688C4.19327 15.0312 4.09392 15.0741 4.02066 15.1502C3.94741 15.2264 3.90625 15.3298 3.90625 15.4375V21.125C3.90625 21.2327 3.94741 21.3361 4.02066 21.4123C4.09392 21.4884 4.19327 21.5312 4.29688 21.5312C4.40048 21.5312 4.49983 21.4884 4.57309 21.4123C4.64634 21.3361 4.6875 21.2327 4.6875 21.125V19.9062H5.85938C6.48098 19.9062 7.07712 19.6494 7.51666 19.1923C7.9562 18.7352 8.20312 18.1152 8.20312 17.4688C8.20312 16.8223 7.9562 16.2023 7.51666 15.7452C7.07712 15.2881 6.48098 15.0312 5.85938 15.0312ZM5.85938 19.0938H4.6875V15.8438H5.85938C6.27378 15.8438 6.6712 16.015 6.96423 16.3197C7.25725 16.6244 7.42188 17.0378 7.42188 17.4688C7.42188 17.8997 7.25725 18.3131 6.96423 18.6178C6.6712 18.9225 6.27378 19.0938 5.85938 19.0938ZM21.4844 20.4009C21.4845 20.5057 21.4457 20.6065 21.376 20.6822C21.1402 20.9468 20.855 21.1585 20.5378 21.3045C20.2206 21.4505 19.8781 21.5277 19.5312 21.5312C18.0234 21.5312 16.7969 20.0728 16.7969 18.2812C16.7969 16.4897 18.0234 15.0312 19.5312 15.0312C20.0276 15.0332 20.512 15.1899 20.9219 15.4812C20.9644 15.511 21.0008 15.5493 21.0291 15.5939C21.0574 15.6384 21.077 15.6883 21.0867 15.7407C21.0965 15.793 21.0962 15.8469 21.0859 15.8992C21.0757 15.9515 21.0556 16.0011 21.0269 16.0454C20.9981 16.0896 20.9613 16.1275 20.9185 16.1569C20.8757 16.1863 20.8277 16.2066 20.7774 16.2168C20.727 16.2269 20.6752 16.2266 20.6249 16.216C20.5746 16.2053 20.5269 16.1844 20.4844 16.1545C20.2036 15.9543 19.8717 15.846 19.5312 15.8438C18.457 15.8438 17.5781 16.9376 17.5781 18.2812C17.5781 19.6249 18.457 20.7188 19.5312 20.7188C19.9669 20.7134 20.385 20.5388 20.7031 20.2292V19.0938H20.3125C20.2089 19.0938 20.1095 19.0509 20.0363 18.9748C19.963 18.8986 19.9219 18.7952 19.9219 18.6875C19.9219 18.5798 19.963 18.4764 20.0363 18.4002C20.1095 18.3241 20.2089 18.2812 20.3125 18.2812H21.0938C21.1973 18.2812 21.2967 18.3241 21.37 18.4002C21.4432 18.4764 21.4844 18.5798 21.4844 18.6875V20.4009ZM14.8438 15.4375V21.125C14.8438 21.2111 14.8175 21.295 14.7687 21.3645C14.7199 21.4341 14.6511 21.4857 14.5723 21.512C14.5338 21.5249 14.4936 21.5314 14.4531 21.5312C14.3911 21.5312 14.3299 21.5158 14.2747 21.4863C14.2195 21.4568 14.1719 21.4141 14.1357 21.3616L10.9375 16.705V21.125C10.9375 21.2327 10.8963 21.3361 10.8231 21.4123C10.7498 21.4884 10.6505 21.5312 10.5469 21.5312C10.4433 21.5312 10.3439 21.4884 10.2707 21.4123C10.1974 21.3361 10.1562 21.2327 10.1562 21.125V15.4375C10.1563 15.3515 10.1826 15.2678 10.2313 15.1983C10.28 15.1288 10.3486 15.0772 10.4274 15.0509C10.5061 15.0246 10.5908 15.025 10.6693 15.0519C10.7478 15.0788 10.8161 15.131 10.8643 15.2009L14.0625 19.8575V15.4375C14.0625 15.3298 14.1037 15.2264 14.1769 15.1502C14.2502 15.0741 14.3495 15.0312 14.4531 15.0312C14.5567 15.0312 14.6561 15.0741 14.7293 15.1502C14.8026 15.2264 14.8438 15.3298 14.8438 15.4375ZM19.9219 11.375C19.9219 11.4827 19.963 11.5861 20.0363 11.6623C20.1095 11.7384 20.2089 11.7812 20.3125 11.7812C20.4161 11.7812 20.5155 11.7384 20.5887 11.6623C20.662 11.5861 20.7031 11.4827 20.7031 11.375V8.9375C20.7032 8.88413 20.6931 8.83128 20.6735 8.78197C20.6539 8.73265 20.6251 8.68783 20.5889 8.65008L15.1201 2.96258C15.0838 2.92486 15.0407 2.89496 14.9933 2.87457C14.9459 2.85418 14.8951 2.84371 14.8438 2.84375H5.46875C5.15795 2.84375 4.85988 2.97215 4.64011 3.20071C4.42034 3.42927 4.29688 3.73927 4.29688 4.0625V11.375C4.29688 11.4827 4.33803 11.5861 4.41129 11.6623C4.48454 11.7384 4.5839 11.7812 4.6875 11.7812C4.7911 11.7812 4.89046 11.7384 4.96371 11.6623C5.03697 11.5861 5.07812 11.4827 5.07812 11.375V4.0625C5.07812 3.95476 5.11928 3.85142 5.19254 3.77524C5.26579 3.69905 5.36515 3.65625 5.46875 3.65625H14.4531V8.9375C14.4531 9.04524 14.4943 9.14858 14.5675 9.22476C14.6408 9.30095 14.7401 9.34375 14.8438 9.34375H19.9219V11.375ZM15.2344 8.53125V4.23008L19.3691 8.53125H15.2344Z" fill="#FF7E0B"/>
</svg>
