<svg width="27" height="26" viewBox="0 0 27 26" fill="none" xmlns="http://www.w3.org/2000/svg">
<path d="M10.125 10.1562H8.4375C8.32561 10.1562 8.21831 10.1991 8.13919 10.2752C8.06007 10.3514 8.01562 10.4548 8.01562 10.5625V15.4375C8.01562 15.5452 8.06007 15.6486 8.13919 15.7248C8.21831 15.8009 8.32561 15.8437 8.4375 15.8437C8.54939 15.8437 8.65669 15.8009 8.73581 15.7248C8.81493 15.6486 8.85938 15.5452 8.85938 15.4375V14.2187H10.125C10.6844 14.2187 11.221 14.0047 11.6166 13.6238C12.0121 13.2429 12.2344 12.7262 12.2344 12.1875C12.2344 11.6488 12.0121 11.1321 11.6166 10.7512C11.221 10.3703 10.6844 10.1562 10.125 10.1562ZM10.125 13.4062H8.85938V10.9687H10.125C10.4607 10.9687 10.7826 11.0972 11.0199 11.3257C11.2573 11.5543 11.3906 11.8643 11.3906 12.1875C11.3906 12.5107 11.2573 12.8207 11.0199 13.0493C10.7826 13.2778 10.4607 13.4062 10.125 13.4062ZM14.3438 2.84375C12.7068 2.84611 11.0928 3.21424 9.62871 3.91918C8.1646 4.62412 6.89036 5.64663 5.90625 6.90625H4.21875C3.88309 6.90625 3.56117 7.03465 3.32382 7.26321C3.08647 7.49177 2.95312 7.80177 2.95312 8.125V17.875C2.95312 18.1982 3.08647 18.5082 3.32382 18.7368C3.56117 18.9653 3.88309 19.0937 4.21875 19.0937H5.90625C6.98492 20.4787 8.41333 21.5752 10.0558 22.279C11.6983 22.9828 13.5004 23.2707 15.2909 23.1152C17.0814 22.9597 18.801 22.3661 20.2862 21.3907C21.7715 20.4153 22.9732 19.0904 23.7772 17.542C24.5812 15.9936 24.9608 14.2729 24.88 12.5435C24.7992 10.814 24.2606 9.13319 23.3155 7.66054C22.3703 6.1879 21.0499 4.97234 19.4797 4.12931C17.9095 3.28628 16.1415 2.84375 14.3438 2.84375ZM24.0374 12.5937H16.4531V8.125C16.4531 7.80177 16.3198 7.49177 16.0824 7.26321C15.8451 7.03465 15.5232 6.90625 15.1875 6.90625H14.7656V3.66539C17.1897 3.77007 19.4854 4.74434 21.2011 6.39658C22.9169 8.04883 23.9287 10.2595 24.0374 12.5937ZM13.9219 3.66641V6.90625H6.98836C7.85445 5.94048 8.91607 5.15504 10.1082 4.59797C11.3004 4.04089 12.5981 3.72391 13.9219 3.66641ZM3.79688 17.875V8.125C3.79688 8.01726 3.84132 7.91392 3.92044 7.83774C3.99956 7.76155 4.10686 7.71875 4.21875 7.71875H15.1875C15.2994 7.71875 15.4067 7.76155 15.4858 7.83774C15.5649 7.91392 15.6094 8.01726 15.6094 8.125V17.875C15.6094 17.9827 15.5649 18.0861 15.4858 18.1623C15.4067 18.2384 15.2994 18.2812 15.1875 18.2812H4.21875C4.10686 18.2812 3.99956 18.2384 3.92044 18.1623C3.84132 18.0861 3.79688 17.9827 3.79688 17.875ZM6.98836 19.0937H13.9219V22.3336C12.5981 22.2761 11.3004 21.9591 10.1082 21.402C8.91607 20.845 7.85445 20.0595 6.98836 19.0937ZM14.7656 22.3346V19.0937H15.1875C15.5232 19.0937 15.8451 18.9653 16.0824 18.7368C16.3198 18.5082 16.4531 18.1982 16.4531 17.875V13.4062H24.0374C23.9287 15.7405 22.9169 17.9512 21.2011 19.6034C19.4854 21.2557 17.1897 22.2299 14.7656 22.3346Z" fill="#149456"/>
</svg>
