<svg width="20" height="20" viewBox="0 0 20 20" fill="none" xmlns="http://www.w3.org/2000/svg">
<path fill-rule="evenodd" clip-rule="evenodd" d="M15.6534 14.2392C18.2897 10.903 18.0677 6.04688 14.9875 2.96664C11.668 -0.352813 6.2861 -0.352814 2.96664 2.96664C-0.352813 6.2861 -0.352813 11.668 2.96664 14.9875C6.04688 18.0677 10.903 18.2897 14.2392 15.6534L17.8159 19.2301C18.2064 19.6206 18.8396 19.6206 19.2301 19.2301C19.6206 18.8396 19.6206 18.2064 19.2301 17.8159L15.6534 14.2392ZM13.5732 4.38086C16.1117 6.91926 16.1117 11.0348 13.5732 13.5732C11.0348 16.1117 6.91926 16.1117 4.38086 13.5732C1.84245 11.0348 1.84245 6.91926 4.38086 4.38086C6.91926 1.84245 11.0348 1.84245 13.5732 4.38086Z" fill="#82868C"/>
</svg>
