<svg width="24" height="24" viewBox="0 0 24 24" fill="none" xmlns="http://www.w3.org/2000/svg">
<mask id="mask0_5217_2587" style="mask-type:alpha" maskUnits="userSpaceOnUse" x="0" y="0" width="24" height="24">
<rect width="24" height="24" fill="#D9D9D9"/>
</mask>
<g mask="url(#mask0_5217_2587)">
<path d="M10.1345 21L9.77297 18.1077C9.45373 18.0115 9.10854 17.8603 8.73739 17.6538C8.36624 17.4474 8.05053 17.2263 7.79027 16.9904L5.12297 18.125L3.25757 14.875L5.56334 13.1365C5.53386 12.9558 5.5095 12.7695 5.49027 12.5779C5.47104 12.3862 5.46142 12.2 5.46142 12.0192C5.46142 11.8513 5.47104 11.6747 5.49027 11.4894C5.5095 11.3042 5.53386 11.0955 5.56334 10.8635L3.25757 9.125L5.12297 5.91345L7.77104 7.02885C8.06976 6.78013 8.39283 6.55578 8.74027 6.35578C9.0877 6.15578 9.42553 6.00128 9.75374 5.8923L10.1345 3H13.8653L14.2268 5.91153C14.6102 6.04614 14.9489 6.20063 15.2432 6.375C15.5374 6.54935 15.8403 6.7673 16.1518 7.02885L18.8768 5.91345L20.7422 9.125L18.3595 10.9212C18.4147 11.1276 18.4454 11.317 18.4518 11.4894C18.4582 11.6619 18.4614 11.8321 18.4614 12C18.4614 12.1551 18.455 12.3189 18.4422 12.4914C18.4294 12.6638 18.3999 12.8724 18.3537 13.1173L20.698 14.875L18.8326 18.125L16.1518 16.9712C15.8403 17.2327 15.5268 17.4571 15.2114 17.6442C14.8961 17.8314 14.5679 17.9795 14.2268 18.0885L13.8653 21H10.1345ZM11.973 14.5C12.6704 14.5 13.2614 14.2577 13.746 13.7731C14.2307 13.2885 14.473 12.6974 14.473 12C14.473 11.3026 14.2307 10.7115 13.746 10.2269C13.2614 9.74231 12.6704 9.5 11.973 9.5C11.2717 9.5 10.6797 9.74231 10.197 10.2269C9.71431 10.7115 9.47297 11.3026 9.47297 12C9.47297 12.6974 9.71431 13.2885 10.197 13.7731C10.6797 14.2577 11.2717 14.5 11.973 14.5ZM11.973 13.5C11.5563 13.5 11.2021 13.3542 10.9105 13.0625C10.6188 12.7708 10.473 12.4167 10.473 12C10.473 11.5833 10.6188 11.2292 10.9105 10.9375C11.2021 10.6458 11.5563 10.5 11.973 10.5C12.3896 10.5 12.7438 10.6458 13.0355 10.9375C13.3271 11.2292 13.473 11.5833 13.473 12C13.473 12.4167 13.3271 12.7708 13.0355 13.0625C12.7438 13.3542 12.3896 13.5 11.973 13.5ZM10.9999 20H12.9557L13.3249 17.2923C13.8287 17.159 14.2823 16.976 14.6855 16.7433C15.0887 16.5106 15.4992 16.1917 15.9172 15.7866L18.4114 16.85L19.4057 15.15L17.2172 13.5058C17.3005 13.2212 17.3557 12.9593 17.3826 12.7202C17.4095 12.4811 17.423 12.241 17.423 12C17.423 11.7462 17.4095 11.5061 17.3826 11.2798C17.3557 11.0535 17.3005 10.8045 17.2172 10.5327L19.4441 8.85L18.4499 7.15L15.898 8.21922C15.5954 7.88717 15.1976 7.57596 14.7047 7.28557C14.2117 6.99519 13.7454 6.80257 13.3057 6.7077L12.9999 4H11.0057L10.6941 6.68845C10.1903 6.79615 9.72713 6.96955 9.30469 7.20865C8.88226 7.44775 8.46207 7.77627 8.04412 8.19422L5.54989 7.15L4.55567 8.85L6.72489 10.4692C6.64156 10.6936 6.58323 10.9372 6.54989 11.2C6.51656 11.4628 6.49989 11.7359 6.49989 12.0192C6.49989 12.2731 6.51656 12.525 6.54989 12.775C6.58323 13.025 6.63515 13.2686 6.70567 13.5058L4.55567 15.15L5.54989 16.85L8.02489 15.8C8.41719 16.1961 8.82457 16.5138 9.24702 16.7529C9.66945 16.992 10.1454 17.1782 10.6749 17.3116L10.9999 20Z" fill="#8B909A"/>
</g>
</svg>
