<svg width="279" height="69" viewBox="0 0 279 69" fill="none" xmlns="http://www.w3.org/2000/svg">
<path d="M20.488 55.952C16.5893 55.952 12.8267 55.476 9.2 54.524C5.61867 53.5267 2.69467 52.2573 0.428 50.716L4.848 40.788C6.97867 42.148 9.42667 43.2813 12.192 44.188C15.0027 45.0493 17.7907 45.48 20.556 45.48C22.4147 45.48 23.9107 45.3213 25.044 45.004C26.1773 44.6413 26.9933 44.188 27.492 43.644C28.036 43.0547 28.308 42.3747 28.308 41.604C28.308 40.516 27.8093 39.6547 26.812 39.02C25.8147 38.3853 24.5227 37.864 22.936 37.456C21.3493 37.048 19.5813 36.64 17.632 36.232C15.728 35.824 13.8013 35.3027 11.852 34.668C9.948 34.0333 8.20267 33.2173 6.616 32.22C5.02933 31.1773 3.73733 29.84 2.74 28.208C1.74267 26.5307 1.244 24.4227 1.244 21.884C1.244 19.028 2.01467 16.444 3.556 14.132C5.14267 11.82 7.5 9.96133 10.628 8.556C13.756 7.15066 17.6547 6.448 22.324 6.448C25.452 6.448 28.512 6.81066 31.504 7.536C34.5413 8.216 37.2387 9.236 39.596 10.596L35.448 20.592C33.1813 19.368 30.9373 18.4613 28.716 17.872C26.4947 17.2373 24.3413 16.92 22.256 16.92C20.3973 16.92 18.9013 17.124 17.768 17.532C16.6347 17.8947 15.8187 18.3933 15.32 19.028C14.8213 19.6627 14.572 20.388 14.572 21.204C14.572 22.2467 15.048 23.0853 16 23.72C16.9973 24.3093 18.2893 24.808 19.876 25.216C21.508 25.5787 23.276 25.964 25.18 26.372C27.1293 26.78 29.056 27.3013 30.96 27.936C32.9093 28.5253 34.6773 29.3413 36.264 30.384C37.8507 31.3813 39.12 32.7187 40.072 34.396C41.0693 36.028 41.568 38.0907 41.568 40.584C41.568 43.3493 40.7747 45.9107 39.188 48.268C37.6467 50.58 35.312 52.4387 32.184 53.844C29.1013 55.2493 25.2027 55.952 20.488 55.952ZM47.1753 55V18.144H60.0953V55H47.1753ZM53.6353 14.064C51.278 14.064 49.374 13.4067 47.9233 12.092C46.4727 10.7773 45.7473 9.14533 45.7473 7.196C45.7473 5.24666 46.4727 3.61466 47.9233 2.3C49.374 0.985332 51.278 0.327999 53.6353 0.327999C55.9927 0.327999 57.8967 0.962665 59.3473 2.232C60.798 3.456 61.5233 5.04267 61.5233 6.992C61.5233 9.032 60.798 10.732 59.3473 12.092C57.942 13.4067 56.038 14.064 53.6353 14.064ZM86.5118 68.804C82.9758 68.804 79.5984 68.396 76.3798 67.58C73.2064 66.764 70.4864 65.5627 68.2198 63.976L72.9118 54.932C74.4531 56.156 76.3571 57.108 78.6238 57.788C80.9358 58.5133 83.1798 58.876 85.3558 58.876C88.8464 58.876 91.3624 58.1053 92.9038 56.564C94.4451 55.068 95.2158 52.8693 95.2158 49.968V45.616L95.8958 35.28L95.8278 24.876V18.144H108.136V48.268C108.136 55.2493 106.254 60.4173 102.492 63.772C98.7291 67.1267 93.4024 68.804 86.5118 68.804ZM84.2678 53.096C81.0038 53.096 77.9891 52.3707 75.2238 50.92C72.5038 49.424 70.3051 47.3613 68.6278 44.732C66.9958 42.0573 66.1798 38.9067 66.1798 35.28C66.1798 31.6533 66.9958 28.5253 68.6278 25.896C70.3051 23.2213 72.5038 21.1587 75.2238 19.708C77.9891 18.2573 81.0038 17.532 84.2678 17.532C87.3958 17.532 90.0704 18.1667 92.2918 19.436C94.5131 20.66 96.1904 22.5867 97.3238 25.216C98.5024 27.8453 99.0918 31.2 99.0918 35.28C99.0918 39.36 98.5024 42.7147 97.3238 45.344C96.1904 47.9733 94.5131 49.9227 92.2918 51.192C90.0704 52.4613 87.3958 53.096 84.2678 53.096ZM87.3278 42.828C88.8691 42.828 90.2291 42.5107 91.4078 41.876C92.6318 41.2413 93.5838 40.3573 94.2638 39.224C94.9891 38.0907 95.3518 36.776 95.3518 35.28C95.3518 33.784 94.9891 32.4693 94.2638 31.336C93.5838 30.2027 92.6318 29.3413 91.4078 28.752C90.2291 28.1173 88.8691 27.8 87.3278 27.8C85.7864 27.8 84.4038 28.1173 83.1798 28.752C81.9558 29.3413 80.9811 30.2027 80.2558 31.336C79.5758 32.4693 79.2358 33.784 79.2358 35.28C79.2358 36.776 79.5758 38.0907 80.2558 39.224C80.9811 40.3573 81.9558 41.2413 83.1798 41.876C84.4038 42.5107 85.7864 42.828 87.3278 42.828ZM140.441 17.532C143.297 17.532 145.881 18.1213 148.193 19.3C150.505 20.4333 152.318 22.2013 153.633 24.604C154.993 27.0067 155.673 30.112 155.673 33.92V55H142.753V36.028C142.753 33.3987 142.209 31.4947 141.121 30.316C140.078 29.092 138.605 28.48 136.701 28.48C135.341 28.48 134.094 28.7973 132.961 29.432C131.828 30.0213 130.944 30.9507 130.309 32.22C129.674 33.4893 129.357 35.144 129.357 37.184V55H116.437V18.144H128.745V28.616L126.365 25.556C127.77 22.8813 129.697 20.8867 132.145 19.572C134.593 18.212 137.358 17.532 140.441 17.532ZM206.15 55.952C199.123 55.952 193.638 54.0253 189.694 50.172C185.75 46.3187 183.778 40.856 183.778 33.784V7.4H197.242V33.376C197.242 37.456 198.035 40.38 199.622 42.148C201.254 43.916 203.475 44.8 206.286 44.8C209.096 44.8 211.295 43.916 212.882 42.148C214.468 40.38 215.262 37.456 215.262 33.376V7.4H228.522V33.784C228.522 40.856 226.55 46.3187 222.606 50.172C218.662 54.0253 213.176 55.952 206.15 55.952ZM260.219 55.612C257.091 55.612 254.416 54.932 252.195 53.572C249.973 52.1667 248.273 50.0813 247.095 47.316C245.961 44.5053 245.395 40.924 245.395 36.572C245.395 32.1747 245.939 28.5933 247.027 25.828C248.115 23.0173 249.747 20.932 251.923 19.572C254.144 18.212 256.909 17.532 260.219 17.532C263.573 17.532 266.611 18.3253 269.331 19.912C272.096 21.4533 274.272 23.652 275.859 26.508C277.491 29.3187 278.307 32.6733 278.307 36.572C278.307 40.4707 277.491 43.848 275.859 46.704C274.272 49.56 272.096 51.7587 269.331 53.3C266.611 54.8413 263.573 55.612 260.219 55.612ZM237.031 68.192V18.144H249.339V24.4L249.271 36.572L249.951 48.812V68.192H237.031ZM257.499 45.344C258.949 45.344 260.241 45.004 261.375 44.324C262.553 43.644 263.483 42.6467 264.163 41.332C264.888 40.0173 265.251 38.4307 265.251 36.572C265.251 34.7133 264.888 33.1267 264.163 31.812C263.483 30.4973 262.553 29.5 261.375 28.82C260.241 28.14 258.949 27.8 257.499 27.8C256.048 27.8 254.733 28.14 253.555 28.82C252.421 29.5 251.492 30.4973 250.767 31.812C250.087 33.1267 249.747 34.7133 249.747 36.572C249.747 38.4307 250.087 40.0173 250.767 41.332C251.492 42.6467 252.421 43.644 253.555 44.324C254.733 45.004 256.048 45.344 257.499 45.344Z" fill="#121625"/>
</svg>
