<svg width="39" height="54" viewBox="0 0 39 54" fill="none" xmlns="http://www.w3.org/2000/svg">
<g clip-path="url(#clip0_2331_28504)">
<path d="M19.5324 0.491699H19.4999C17.0066 0.491699 14.9854 2.32206 14.9854 4.57993V49.4035C14.9854 51.6613 17.0066 53.4917 19.4999 53.4917H19.5324C22.0257 53.4917 24.0469 51.6613 24.0469 49.4035V4.57993C24.0469 2.32206 22.0257 0.491699 19.5324 0.491699Z" fill="#A6A6A6"/>
<path d="M34.0177 11.9917H33.9852C31.4919 11.9917 29.4707 13.8221 29.4707 16.0799V37.9329C29.4707 40.1907 31.4919 42.0211 33.9852 42.0211H34.0177C36.511 42.0211 38.5322 40.1907 38.5322 37.9329V16.0799C38.5322 13.8221 36.511 11.9917 34.0177 11.9917Z" fill="#A6A6A6"/>
<path d="M34.0177 44.3447H33.9852C31.4919 44.3447 29.4707 46.1751 29.4707 48.433V48.4624C29.4707 50.7202 31.4919 52.5506 33.9852 52.5506H34.0177C36.511 52.5506 38.5322 50.7202 38.5322 48.4624V48.433C38.5322 46.1751 36.511 44.3447 34.0177 44.3447Z" fill="#A6A6A6"/>
<path d="M5.04701 44.3447H5.01453C2.52122 44.3447 0.5 46.1751 0.5 48.433V48.4624C0.5 50.7202 2.52122 52.5506 5.01453 52.5506H5.04701C7.54031 52.5506 9.56154 50.7202 9.56154 48.4624V48.433C9.56154 46.1751 7.54031 44.3447 5.04701 44.3447Z" fill="#A6A6A6"/>
<path d="M5.04701 11.9917H5.01453C2.52122 11.9917 0.5 13.8221 0.5 16.0799V37.9329C0.5 40.1907 2.52122 42.0211 5.01453 42.0211H5.04701C7.54031 42.0211 9.56154 40.1907 9.56154 37.9329V16.0799C9.56154 13.8221 7.54031 11.9917 5.04701 11.9917Z" fill="#A6A6A6"/>
</g>
<defs>
<clipPath id="clip0_2331_28504">
<rect width="38" height="53" fill="white" transform="translate(0.5 0.491699)"/>
</clipPath>
</defs>
</svg>
