<svg width="24" height="24" viewBox="0 0 24 24" fill="none" xmlns="http://www.w3.org/2000/svg">
<path fill-rule="evenodd" clip-rule="evenodd" d="M5.18109 15.663C5.08969 15.4781 4.86347 15.4009 4.67747 15.4899L3.9375 15.8438C3.9375 15.8438 6.04688 20.8594 11.9531 21.0938C17.5781 20.9532 21.0119 16.5351 21.0469 12.0469C21.0818 7.55873 17.5781 3.09379 12.0938 3.04692C6.70313 2.95317 4.63538 7.26604 4.63538 7.26604C4.53478 7.44698 4.45313 7.42523 4.45313 7.21907V4.87476C4.45305 4.77535 4.41351 4.68004 4.34319 4.60978C4.27287 4.53951 4.17753 4.50004 4.07813 4.50004H3.46875C3.26166 4.50004 3.09375 4.66879 3.09375 4.87579V9.46804C3.09363 9.51734 3.10323 9.56618 3.12201 9.61176C3.14079 9.65735 3.16838 9.69878 3.2032 9.73368C3.23802 9.76858 3.27938 9.79628 3.32491 9.81517C3.37045 9.83407 3.41926 9.84379 3.46856 9.84379H8.20331C8.25251 9.84383 8.30122 9.83417 8.34668 9.81538C8.39214 9.79659 8.43346 9.76902 8.46826 9.73426C8.50307 9.6995 8.53068 9.65822 8.54954 9.61278C8.56839 9.56734 8.5781 9.51864 8.57813 9.46945V8.90564C8.57813 8.69892 8.41031 8.52876 8.20238 8.52567L5.81325 8.49004C5.60569 8.48695 5.51109 8.33264 5.60869 8.14992C5.60869 8.14992 7.3125 4.21879 12.0469 4.26567C16.6406 4.31254 19.8048 8.19651 19.7812 12.0696C19.5 17.25 15.5625 19.7813 11.9531 19.6875C6.84375 19.6875 5.18109 15.663 5.18109 15.663Z" fill="#555555"/>
</svg>
