<svg width="14" height="15" viewBox="0 0 14 15" fill="none" xmlns="http://www.w3.org/2000/svg">
<path d="M1.61537 15C1.15512 15 0.770833 14.8458 0.4625 14.5375C0.154167 14.2291 0 13.8448 0 13.3846V11H1V13.3846C1 13.5384 1.0641 13.6794 1.1923 13.8077C1.32052 13.9359 1.46154 14 1.61537 14H12.3846C12.5385 14 12.6795 13.9359 12.8077 13.8077C12.9359 13.6794 13 13.5384 13 13.3846V11H14V13.3846C14 13.8448 13.8458 14.2291 13.5375 14.5375C13.2292 14.8458 12.8449 15 12.3846 15H1.61537ZM6.5 11.2307V2.58073L4.16923 4.91151L3.46152 4.19228L7 0.653809L10.5385 4.19228L9.83078 4.91151L7.5 2.58073V11.2307H6.5Z" fill="#8B909A"/>
</svg>
