<svg width="34" height="38" viewBox="0 0 34 38" fill="none" xmlns="http://www.w3.org/2000/svg">
<path d="M8.95005 23.2001C8.64505 23.2001 8.35254 23.0895 8.13688 22.8926C7.92121 22.6956 7.80005 22.4286 7.80005 22.1501C7.80005 21.8716 7.92121 21.6045 8.13688 21.4076C8.35254 21.2107 8.64505 21.1001 8.95005 21.1001H25.05C25.355 21.1001 25.6476 21.2107 25.8632 21.4076C26.0789 21.6045 26.2 21.8716 26.2 22.1501C26.2 22.4286 26.0789 22.6956 25.8632 22.8926C25.6476 23.0895 25.355 23.2001 25.05 23.2001H8.95005ZM8.95005 29.5001C8.64505 29.5001 8.35254 29.3895 8.13688 29.1926C7.92121 28.9956 7.80005 28.7286 7.80005 28.4501C7.80005 28.1716 7.92121 27.9045 8.13688 27.7076C8.35254 27.5107 8.64505 27.4001 8.95005 27.4001H25.05C25.355 27.4001 25.6476 27.5107 25.8632 27.7076C26.0789 27.9045 26.2 28.1716 26.2 28.4501C26.2 28.7286 26.0789 28.9956 25.8632 29.1926C25.6476 29.3895 25.355 29.5001 25.05 29.5001H8.95005Z" fill="#8B909A"/>
<path fill-rule="evenodd" clip-rule="evenodd" d="M19.7255 0.100098H4.35002C3.43503 0.100098 2.55751 0.431972 1.91051 1.02271C1.26351 1.61345 0.900024 2.41467 0.900024 3.2501V34.7501C0.900024 35.5855 1.26351 36.3867 1.91051 36.9775C2.55751 37.5682 3.43503 37.9001 4.35002 37.9001H29.65C30.565 37.9001 31.4425 37.5682 32.0895 36.9775C32.7365 36.3867 33.1 35.5855 33.1 34.7501V13.1243C33.0998 12.3357 32.7756 11.5758 32.1915 10.9949L22.2693 1.1207C21.946 0.798863 21.5528 0.541939 21.1149 0.36624C20.677 0.190542 20.2039 0.0999094 19.7255 0.100098ZM3.20002 3.2501C3.20002 2.97162 3.32118 2.70455 3.53685 2.50764C3.75252 2.31072 4.04503 2.2001 4.35002 2.2001H19.7255C19.8851 2.19994 20.043 2.2301 20.1891 2.28867C20.3352 2.34724 20.4664 2.43293 20.5742 2.5403L30.4964 12.4145C30.6914 12.608 30.7997 12.8613 30.8 13.1243V34.7501C30.8 35.0286 30.6789 35.2956 30.4632 35.4926C30.2475 35.6895 29.955 35.8001 29.65 35.8001H4.35002C4.04503 35.8001 3.75252 35.6895 3.53685 35.4926C3.32118 35.2956 3.20002 35.0286 3.20002 34.7501V3.2501Z" fill="#8B909A"/>
<path d="M19.3 12.7001H31.95C32.255 12.7001 32.5475 12.8107 32.7632 13.0076C32.9788 13.2045 33.1 13.4716 33.1 13.7501C33.1 14.0286 32.9788 14.2956 32.7632 14.4926C32.5475 14.6895 32.255 14.8001 31.95 14.8001H18.15C17.845 14.8001 17.5525 14.6895 17.3368 14.4926C17.1212 14.2956 17 14.0286 17 13.7501V1.1501C17 0.87162 17.1212 0.604549 17.3368 0.407635C17.5525 0.210722 17.845 0.100098 18.15 0.100098C18.455 0.100098 18.7475 0.210722 18.9632 0.407635C19.1788 0.604549 19.3 0.87162 19.3 1.1501V12.7001Z" fill="#8B909A"/>
</svg>
