<svg width="97" height="50" viewBox="0 0 97 50" fill="none" xmlns="http://www.w3.org/2000/svg">
<g clip-path="url(#clip0_2331_28521)">
<path d="M72.9604 14.6131C72.0121 6.75122 60.1864 0.616023 46.1852 1.24056C33.9133 1.75489 24.04 7.52271 23.2033 14.6131C23.2033 14.6131 23.2033 14.6498 23.2033 14.6866C23.2033 15.0907 23.1475 15.4581 23.2033 15.8622H25.1556C25.1556 15.4948 25.1556 15.1274 25.1556 14.7233C25.1556 14.7233 25.1556 14.6498 25.1556 14.6131C25.9923 8.11051 35.0289 2.82028 46.2968 2.34269C59.1823 1.79163 70.1155 7.4125 71.008 14.6131C71.008 14.9437 71.0638 15.2744 71.0638 15.605C71.0638 15.6785 71.0638 15.752 71.0638 15.8622H73.0162C73.0162 15.8622 73.0162 15.7152 73.0162 15.605C73.0162 15.2744 73.0162 14.9437 72.9604 14.6131Z" fill="#A6A6A6"/>
<path d="M74.9126 17.0746H68.8324L68.9998 15.7888C68.9998 15.7888 68.9998 15.6785 68.9998 15.6418C68.9998 15.3112 68.9998 15.0173 68.944 14.7601C68.5535 11.5272 65.9876 8.58817 61.7482 6.45739C57.5088 4.3266 52.098 3.29794 46.4641 3.55511C36.256 3.99596 27.9446 8.8086 27.2194 14.7234V14.8336C27.1637 15.2377 27.1637 15.5683 27.1637 15.8622V17.1113H21.1392V15.9357C21.0835 15.5683 21.0835 15.1275 21.1392 14.6866C21.1392 14.6499 21.1392 14.5764 21.1392 14.5397C22.0875 6.82476 32.7418 0.616092 46.0178 0.0282886C53.2694 -0.302351 60.2421 1.05694 65.7645 3.81227C71.2311 6.5676 74.5222 10.3516 75.0242 14.5397C75.0242 14.8703 75.08 15.2377 75.08 15.6418C75.08 15.752 75.08 15.8622 75.08 15.9724L74.9126 17.0746Z" fill="#A6A6A6"/>
<path d="M77.3112 13.9518C77.3112 13.9518 77.1996 14.2089 77.0323 14.3191L72.7929 16.8908C72.4582 17.1112 71.9004 17.1112 71.5099 16.9642L66.7127 14.9804C66.2664 14.7967 66.2107 14.4661 66.4896 14.2089C66.8243 13.9518 67.4379 13.915 67.8283 14.0987L71.9004 15.7886L75.582 13.5476C75.9724 13.3272 76.586 13.3272 76.9765 13.5476C77.1996 13.6579 77.3112 13.8048 77.3112 13.9518Z" fill="#A6A6A6"/>
<path d="M72.0678 18.2502C71.4542 18.2502 70.8406 18.14 70.2828 17.9196L65.4856 15.9358C64.8162 15.6419 64.3699 15.2377 64.2584 14.7969C64.1468 14.3193 64.3142 13.8784 64.8162 13.5111C65.8203 12.7396 67.7168 12.5926 68.9998 13.1437L71.6215 14.2458L74.0759 12.7763C75.1916 12.0783 77.0881 12.0416 78.3153 12.7028C78.9847 13.0335 79.3194 13.5111 79.3194 14.0254C79.3194 14.4662 78.9847 14.8704 78.4827 15.1643L74.2433 17.7359C73.6297 18.1033 72.8487 18.287 72.012 18.287L72.0678 18.2502Z" fill="#A6A6A6"/>
<path d="M25.3226 35.3702C26.2709 43.232 38.0966 49.3672 52.0978 48.7427C64.3697 48.2284 74.243 42.4606 75.0797 35.3702C75.0797 35.3702 75.0797 35.3334 75.0797 35.2967C75.0797 34.8926 75.1355 34.5252 75.0797 34.1211H73.1274C73.1274 34.4885 73.1274 34.8558 73.1274 35.26C73.1274 35.26 73.1274 35.3334 73.1274 35.3702C72.2907 41.8727 63.2541 47.163 51.9862 47.6406C39.1007 48.1916 28.1675 42.5708 27.275 35.3702C27.275 35.0395 27.2192 34.7089 27.2192 34.3783C27.2192 34.3048 27.2192 34.2313 27.2192 34.1211H25.2668C25.2668 34.1211 25.2668 34.268 25.2668 34.3783C25.2668 34.7089 25.2668 35.0395 25.3226 35.3702Z" fill="#A6A6A6"/>
<path d="M50.2013 49.9918C43.7306 49.9918 37.4831 48.6693 32.5743 46.1711C27.1077 43.4158 23.8166 39.6318 23.3146 35.4437C23.3146 35.1131 23.2588 34.7457 23.2588 34.3416C23.2588 34.2314 23.2588 34.1212 23.2588 34.0109L23.4261 32.9088H29.5063L29.339 34.1946C29.339 34.1946 29.339 34.3048 29.339 34.3416C29.339 34.6722 29.339 34.9661 29.3948 35.2233C29.7852 38.4562 32.3512 41.3952 36.6464 43.526C40.8858 45.6568 46.2966 46.6854 51.9305 46.4283C62.1385 45.9874 70.45 41.1748 71.1751 35.26V35.1498C71.2309 34.7457 71.2309 34.4151 71.2309 34.1212V32.8721H77.1995V34.0109C77.3111 34.3783 77.2553 34.7824 77.1995 35.26C77.1995 35.2968 77.1995 35.3702 77.1995 35.407C76.2512 43.0852 65.597 49.2938 52.321 49.8449C51.6516 49.8449 50.9264 49.8816 50.257 49.8816L50.2013 49.9918Z" fill="#A6A6A6"/>
<path d="M20.9717 36.0314C20.9717 36.0314 21.0832 35.7742 21.2506 35.664L25.49 33.0924C25.8247 32.872 26.3825 32.872 26.773 33.0189L31.5702 35.0028C32.0164 35.1864 32.0722 35.5171 31.7933 35.7742C31.4586 36.0314 30.845 36.0681 30.4545 35.8845L26.3825 34.1945L22.7009 36.4355C22.3104 36.656 21.6968 36.656 21.3064 36.4355C21.0832 36.3253 20.9717 36.1784 20.9717 36.0314Z" fill="#A6A6A6"/>
<path d="M21.92 37.758C21.1949 37.758 20.4697 37.611 19.8561 37.3171C19.1867 36.9865 18.8521 36.4721 18.8521 35.9945C18.8521 35.5537 19.1867 35.1496 19.6888 34.8557L23.9282 32.284C24.988 31.6595 26.6615 31.5493 27.8887 32.0636L32.6859 34.0475C33.3552 34.3414 33.8015 34.7455 33.9131 35.1863C34.0246 35.6639 33.8573 36.1048 33.3552 36.4721C32.3512 37.2436 30.4546 37.3906 29.1716 36.8395L26.5499 35.7374L24.0955 37.2069C23.4819 37.5743 22.701 37.758 21.8643 37.758H21.92Z" fill="#A6A6A6"/>
<path d="M0.5 29.088V18.4341H9.81551C11.9352 18.4341 13.3855 18.6545 14.278 19.0954C15.1148 19.5362 15.561 20.3444 15.561 21.4466C15.561 22.4385 15.3379 23.0998 14.8359 23.5039C14.3896 23.908 13.4971 24.1284 12.1583 24.2754C14.2223 24.3856 15.2821 25.0836 15.2821 26.3694V29.088H13.0508V26.6266C13.0508 25.3775 12.0468 24.753 10.0944 24.753H2.73126V29.088H0.5ZM2.73126 23.761H9.14614C10.8196 23.761 11.991 23.6141 12.6046 23.3569C13.2182 23.063 13.4971 22.5487 13.4971 21.7772C13.4971 20.822 13.274 20.1975 12.8277 19.9036C12.3815 19.6097 11.3774 19.4627 9.92708 19.4627H2.73126V23.761Z" fill="#A6A6A6"/>
<path d="M28.2792 26.8471H30.3431V27.1043C30.3431 27.8758 29.8969 28.4268 29.0601 28.7207C28.1676 29.0146 26.6615 29.1983 24.4861 29.1983C21.9759 29.1983 20.3025 28.9411 19.5215 28.4268C18.7406 27.9125 18.3501 26.8838 18.3501 25.2674C18.3501 23.7611 18.7406 22.7692 19.5215 22.2549C20.3025 21.7406 21.8643 21.4834 24.2072 21.4834C26.7173 21.4834 28.3908 21.7038 29.1717 22.1447C29.9527 22.5855 30.3431 23.504 30.3431 24.9367V25.5245H20.4698C20.4698 26.7002 20.6929 27.4349 21.1392 27.7655C21.5854 28.0962 22.7011 28.2431 24.3745 28.2431C26.0479 28.2431 27.052 28.1697 27.554 28.0227C28.0561 27.8758 28.2792 27.5451 28.2792 27.0308V26.8104V26.8471ZM28.2792 24.7163V24.3489C28.2792 23.5407 28.0003 23.0264 27.554 22.7692C27.1078 22.5121 25.9922 22.4018 24.3745 22.4018C22.7568 22.4018 21.697 22.5488 21.195 22.8427C20.6929 23.1366 20.4698 23.7611 20.4698 24.7163H28.2792Z" fill="#A6A6A6"/>
<path d="M33.5227 21.6302H35.4751V22.6589C36.0887 21.8874 37.5948 21.52 40.0491 21.52C42.0015 21.52 43.3403 21.7037 44.0096 22.0711C44.679 22.4385 45.0695 23.1732 45.0695 24.2386V29.088H43.0613V24.0549C43.0613 23.4304 42.8382 22.9895 42.392 22.7691C41.9457 22.5487 41.0532 22.4385 39.7702 22.4385C36.9254 22.4385 35.5308 23.1732 35.5308 24.606V29.088H33.5227V21.6302Z" fill="#A6A6A6"/>
<path d="M58.2338 26.8471H60.2977V27.1043C60.2977 27.8758 59.8515 28.4268 59.0147 28.7207C58.1222 29.0146 56.6161 29.1983 54.4407 29.1983C51.9305 29.1983 50.257 28.9411 49.4761 28.4268C48.6952 27.9125 48.3047 26.8838 48.3047 25.2674C48.3047 23.7611 48.6952 22.7692 49.4761 22.2549C50.257 21.7406 51.8189 21.4834 54.1617 21.4834C56.6719 21.4834 58.3454 21.7038 59.1263 22.1447C59.9072 22.5855 60.2977 23.504 60.2977 24.9367V25.5245H50.4244C50.4244 26.7002 50.6475 27.4349 51.0938 27.7655C51.54 28.0962 52.6556 28.2431 54.3291 28.2431C56.0025 28.2431 57.0066 28.1697 57.5086 28.0227C58.0107 27.8758 58.2338 27.5451 58.2338 27.0308V26.8104V26.8471ZM58.2338 24.7163V24.3489C58.2338 23.5407 57.9549 23.0264 57.5086 22.7692C57.0624 22.5121 55.9468 22.4018 54.3291 22.4018C52.7114 22.4018 51.6516 22.5488 51.1495 22.8427C50.6475 23.1366 50.4244 23.7611 50.4244 24.7163H58.2338Z" fill="#A6A6A6"/>
<path d="M81.3274 21.6305L77.4784 29.0882H74.4662L72.6254 24.9369L72.0676 23.6878L71.7887 23.0633L71.5098 22.4387L71.2309 23.0633L70.952 23.6878L70.3942 24.9369L68.5534 29.0882H65.4854L61.748 21.6305H63.8677L65.8201 25.7451L66.4337 27.0309L66.7126 27.6922L66.9915 28.3535H67.0473L67.3262 27.6922L67.6051 27.0309L68.1629 25.7451L70.0595 21.5938H73.0159L74.8567 25.7451L75.4145 27.0309L75.6934 27.6555L75.9723 28.3167L76.2512 27.6555L76.5302 26.9942L77.1437 25.7084L79.0961 21.5938H81.2716L81.3274 21.6305Z" fill="#A6A6A6"/>
<path d="M85.1764 18.4341V19.6464H83.1682V18.4341H85.1764ZM85.1764 21.6303V29.088H83.1682V21.6303H85.1764Z" fill="#A6A6A6"/>
<path d="M95.998 21.6302V22.5487H90.6988V27.1041C90.6988 27.9124 91.3681 28.3165 92.6511 28.3165C93.9341 28.3165 94.6035 27.9491 94.6035 27.2511V26.8837V26.4796H96.4443V27.0307C96.4443 28.5002 95.1613 29.2349 92.5953 29.2349C90.0294 29.2349 88.6349 28.6104 88.6349 27.398V22.5487H86.7383V21.6302H88.6349V19.8301H90.643V21.6302H95.9422H95.998Z" fill="#A6A6A6"/>
</g>
<defs>
<clipPath id="clip0_2331_28521">
<rect width="96" height="50" fill="white" transform="translate(0.5 -0.00830078)"/>
</clipPath>
</defs>
</svg>
